%TF.GenerationSoftware,KiCad,Pcbnew,(6.0.11)*%
%TF.CreationDate,2023-12-04T14:39:31+00:00*%
%TF.ProjectId,EcoIDSolder,45636f49-4453-46f6-9c64-65722e6b6963,rev?*%
%TF.SameCoordinates,Original*%
%TF.FileFunction,Copper,L1,Top*%
%TF.FilePolarity,Positive*%
%FSLAX46Y46*%
G04 Gerber Fmt 4.6, Leading zero omitted, Abs format (unit mm)*
G04 Created by KiCad (PCBNEW (6.0.11)) date 2023-12-04 14:39:31*
%MOMM*%
%LPD*%
G01*
G04 APERTURE LIST*
%TA.AperFunction,SMDPad,CuDef*%
%ADD10R,3.300000X1.020000*%
%TD*%
%TA.AperFunction,ViaPad*%
%ADD11C,0.800000*%
%TD*%
%TA.AperFunction,Conductor*%
%ADD12C,0.250000*%
%TD*%
G04 APERTURE END LIST*
D10*
%TO.P,J1,1,Pin_1*%
%TO.N,/0_in*%
X145365000Y-71935000D03*
%TO.P,J1,2,Pin_2*%
%TO.N,/1_in*%
X145365000Y-74475000D03*
%TO.P,J1,3,Pin_3*%
%TO.N,/2_in*%
X145365000Y-77015000D03*
%TO.P,J1,4,Pin_4*%
%TO.N,/3_in*%
X145365000Y-79555000D03*
%TO.P,J1,5,Pin_5*%
%TO.N,/4_in*%
X145365000Y-82095000D03*
%TO.P,J1,6,Pin_6*%
%TO.N,/5_in*%
X145365000Y-84635000D03*
%TO.P,J1,7,Pin_7*%
%TO.N,/6_in*%
X145365000Y-87175000D03*
%TO.P,J1,8,Pin_8*%
%TO.N,/7_in*%
X145365000Y-89715000D03*
%TO.P,J1,9,Pin_9*%
%TO.N,/7_out*%
X150065000Y-89715000D03*
%TO.P,J1,10,Pin_10*%
%TO.N,/6_out*%
X150065000Y-87175000D03*
%TO.P,J1,11,Pin_11*%
%TO.N,/5_out*%
X150065000Y-84635000D03*
%TO.P,J1,12,Pin_12*%
%TO.N,/4_out*%
X150065000Y-82095000D03*
%TO.P,J1,13,Pin_13*%
%TO.N,/3_out*%
X150065000Y-79555000D03*
%TO.P,J1,14,Pin_14*%
%TO.N,/2_out*%
X150065000Y-77015000D03*
%TO.P,J1,15,Pin_15*%
%TO.N,/1_out*%
X150065000Y-74475000D03*
%TO.P,J1,16,Pin_16*%
%TO.N,/0_out*%
X150065000Y-71935000D03*
%TD*%
D11*
%TO.N,/0_out*%
X150000000Y-71900000D03*
%TO.N,/0_in*%
X145400000Y-71900000D03*
%TO.N,/1_out*%
X150000000Y-74500000D03*
%TO.N,/1_in*%
X145300000Y-74500000D03*
%TO.N,/2_out*%
X150200000Y-77000000D03*
%TO.N,/2_in*%
X145400000Y-77000000D03*
%TO.N,/3_out*%
X150200000Y-79600000D03*
%TO.N,/3_in*%
X145400000Y-79600000D03*
%TO.N,/4_out*%
X150100000Y-82100000D03*
%TO.N,/4_in*%
X145400000Y-82100000D03*
%TO.N,/5_out*%
X150000000Y-84600000D03*
%TO.N,/5_in*%
X145400000Y-84700000D03*
%TO.N,/6_out*%
X150100000Y-87200000D03*
%TO.N,/6_in*%
X145400000Y-87200000D03*
%TO.N,/7_out*%
X150000000Y-89700000D03*
%TO.N,/7_in*%
X145400000Y-89700000D03*
%TD*%
D12*
%TO.N,/0_out*%
X150065000Y-71935000D02*
X150035000Y-71935000D01*
X150035000Y-71935000D02*
X150000000Y-71900000D01*
%TO.N,/0_in*%
X145365000Y-71935000D02*
X145400000Y-71900000D01*
%TO.N,/1_out*%
X150025000Y-74475000D02*
X150000000Y-74500000D01*
X150065000Y-74475000D02*
X150025000Y-74475000D01*
%TO.N,/1_in*%
X145325000Y-74475000D02*
X145300000Y-74500000D01*
X145365000Y-74475000D02*
X145325000Y-74475000D01*
%TO.N,/2_out*%
X150065000Y-77015000D02*
X150185000Y-77015000D01*
X150185000Y-77015000D02*
X150200000Y-77000000D01*
%TO.N,/2_in*%
X145385000Y-77015000D02*
X145400000Y-77000000D01*
X145365000Y-77015000D02*
X145385000Y-77015000D01*
%TO.N,/3_out*%
X150065000Y-79555000D02*
X150155000Y-79555000D01*
X150155000Y-79555000D02*
X150200000Y-79600000D01*
%TO.N,/3_in*%
X145365000Y-79555000D02*
X145365000Y-79565000D01*
X145365000Y-79565000D02*
X145400000Y-79600000D01*
%TO.N,/4_out*%
X150095000Y-82095000D02*
X150100000Y-82100000D01*
X150065000Y-82095000D02*
X150095000Y-82095000D01*
%TO.N,/4_in*%
X145395000Y-82095000D02*
X145400000Y-82100000D01*
X145365000Y-82095000D02*
X145395000Y-82095000D01*
%TO.N,/5_out*%
X150035000Y-84635000D02*
X150000000Y-84600000D01*
X150065000Y-84635000D02*
X150035000Y-84635000D01*
%TO.N,/5_in*%
X145365000Y-84635000D02*
X145365000Y-84665000D01*
X145365000Y-84665000D02*
X145400000Y-84700000D01*
%TO.N,/6_out*%
X150075000Y-87175000D02*
X150100000Y-87200000D01*
X150065000Y-87175000D02*
X150075000Y-87175000D01*
%TO.N,/6_in*%
X145365000Y-87175000D02*
X145375000Y-87175000D01*
X145375000Y-87175000D02*
X145400000Y-87200000D01*
%TO.N,/7_out*%
X150065000Y-89715000D02*
X150015000Y-89715000D01*
X150015000Y-89715000D02*
X150000000Y-89700000D01*
%TO.N,/7_in*%
X145365000Y-89715000D02*
X145385000Y-89715000D01*
X145385000Y-89715000D02*
X145400000Y-89700000D01*
%TD*%
M02*
