%TF.GenerationSoftware,KiCad,Pcbnew,(6.0.11)*%
%TF.CreationDate,2023-12-04T14:39:34+00:00*%
%TF.ProjectId,EcoIDSolder,45636f49-4453-46f6-9c64-65722e6b6963,rev?*%
%TF.SameCoordinates,Original*%
%TF.FileFunction,Drillmap*%
%TF.FilePolarity,Positive*%
%FSLAX45Y45*%
G04 Gerber Fmt 4.5, Leading zero omitted, Abs format (unit mm)*
G04 Created by KiCad (PCBNEW (6.0.11)) date 2023-12-04 14:39:34*
%MOMM*%
%LPD*%
G01*
G04 APERTURE LIST*
%ADD10C,0.100000*%
%ADD11C,0.200000*%
G04 APERTURE END LIST*
D10*
X14200000Y-9180000D02*
G75*
G03*
X14300000Y-9080000I0J100000D01*
G01*
X15240000Y-7080000D02*
G75*
G03*
X15140000Y-6980000I-100000J0D01*
G01*
X14400000Y-6980000D02*
G75*
G03*
X14300000Y-7080000I0J-100000D01*
G01*
X14110711Y-9180711D02*
G75*
G03*
X14010711Y-9280711I0J-100000D01*
G01*
X15240000Y-9080000D02*
G75*
G03*
X15340000Y-9180000I100000J0D01*
G01*
X15510000Y-9280000D02*
G75*
G03*
X15410000Y-9180000I-100000J0D01*
G01*
X15410000Y-10680000D02*
G75*
G03*
X15510000Y-10580000I0J100000D01*
G01*
X14010000Y-10580000D02*
G75*
G03*
X14110000Y-10680000I100000J0D01*
G01*
X15340000Y-9180000D02*
X15410000Y-9180000D01*
X15510000Y-9280000D02*
X15510000Y-10580000D01*
X14110000Y-10680000D02*
X15410000Y-10680000D01*
X14010711Y-9280711D02*
X14010000Y-10580000D01*
X14200000Y-9180000D02*
X14110711Y-9180711D01*
X15240000Y-7080000D02*
X15240000Y-9080000D01*
X14300000Y-9080000D02*
X14300000Y-7080000D01*
X14400000Y-6980000D02*
X15140000Y-6980000D01*
D11*
X14262619Y-10995476D02*
X14262619Y-10795476D01*
X14310238Y-10795476D01*
X14338809Y-10805000D01*
X14357857Y-10824048D01*
X14367381Y-10843095D01*
X14376905Y-10881190D01*
X14376905Y-10909762D01*
X14367381Y-10947857D01*
X14357857Y-10966905D01*
X14338809Y-10985952D01*
X14310238Y-10995476D01*
X14262619Y-10995476D01*
X14462619Y-10995476D02*
X14462619Y-10862143D01*
X14462619Y-10900238D02*
X14472143Y-10881190D01*
X14481667Y-10871667D01*
X14500714Y-10862143D01*
X14519762Y-10862143D01*
X14586428Y-10995476D02*
X14586428Y-10862143D01*
X14586428Y-10795476D02*
X14576905Y-10805000D01*
X14586428Y-10814524D01*
X14595952Y-10805000D01*
X14586428Y-10795476D01*
X14586428Y-10814524D01*
X14710238Y-10995476D02*
X14691190Y-10985952D01*
X14681667Y-10966905D01*
X14681667Y-10795476D01*
X14815000Y-10995476D02*
X14795952Y-10985952D01*
X14786428Y-10966905D01*
X14786428Y-10795476D01*
X15043571Y-10995476D02*
X15043571Y-10795476D01*
X15110238Y-10938333D01*
X15176905Y-10795476D01*
X15176905Y-10995476D01*
X15357857Y-10995476D02*
X15357857Y-10890714D01*
X15348333Y-10871667D01*
X15329286Y-10862143D01*
X15291190Y-10862143D01*
X15272143Y-10871667D01*
X15357857Y-10985952D02*
X15338809Y-10995476D01*
X15291190Y-10995476D01*
X15272143Y-10985952D01*
X15262619Y-10966905D01*
X15262619Y-10947857D01*
X15272143Y-10928810D01*
X15291190Y-10919286D01*
X15338809Y-10919286D01*
X15357857Y-10909762D01*
X15453095Y-10862143D02*
X15453095Y-11062143D01*
X15453095Y-10871667D02*
X15472143Y-10862143D01*
X15510238Y-10862143D01*
X15529286Y-10871667D01*
X15538809Y-10881190D01*
X15548333Y-10900238D01*
X15548333Y-10957381D01*
X15538809Y-10976429D01*
X15529286Y-10985952D01*
X15510238Y-10995476D01*
X15472143Y-10995476D01*
X15453095Y-10985952D01*
X15634048Y-10976429D02*
X15643571Y-10985952D01*
X15634048Y-10995476D01*
X15624524Y-10985952D01*
X15634048Y-10976429D01*
X15634048Y-10995476D01*
X15634048Y-10871667D02*
X15643571Y-10881190D01*
X15634048Y-10890714D01*
X15624524Y-10881190D01*
X15634048Y-10871667D01*
X15634048Y-10890714D01*
M02*
