%TF.GenerationSoftware,KiCad,Pcbnew,(6.0.11)*%
%TF.CreationDate,2024-01-05T01:13:56+00:00*%
%TF.ProjectId,EcoIDSolder,45636f49-4453-46f6-9c64-65722e6b6963,rev?*%
%TF.SameCoordinates,Original*%
%TF.FileFunction,Drillmap*%
%TF.FilePolarity,Positive*%
%FSLAX45Y45*%
G04 Gerber Fmt 4.5, Leading zero omitted, Abs format (unit mm)*
G04 Created by KiCad (PCBNEW (6.0.11)) date 2024-01-05 01:13:56*
%MOMM*%
%LPD*%
G01*
G04 APERTURE LIST*
%ADD10C,0.100000*%
%ADD11C,0.200000*%
G04 APERTURE END LIST*
D10*
X14300000Y-9080000D02*
X14300000Y-7080000D01*
X15240000Y-9080000D02*
G75*
G03*
X15340000Y-9180000I100000J0D01*
G01*
X14400000Y-6980000D02*
G75*
G03*
X14300000Y-7080000I0J-100000D01*
G01*
X14030000Y-10580000D02*
X14030000Y-9280000D01*
X14030000Y-10580000D02*
G75*
G03*
X14130000Y-10680000I100000J0D01*
G01*
X15240000Y-7080000D02*
G75*
G03*
X15140000Y-6980000I-100000J0D01*
G01*
X15429289Y-9180711D02*
X15340000Y-9180000D01*
X15240000Y-7080000D02*
X15240000Y-9080000D01*
X14130000Y-9180000D02*
X14200000Y-9180000D01*
X15529289Y-9280711D02*
G75*
G03*
X15429289Y-9180711I-99999J1D01*
G01*
X15430000Y-10680000D02*
G75*
G03*
X15530000Y-10580000I0J100000D01*
G01*
X14400000Y-6980000D02*
X15140000Y-6980000D01*
X14130000Y-10680000D02*
X15430000Y-10680000D01*
X14200000Y-9180000D02*
G75*
G03*
X14300000Y-9080000I0J100000D01*
G01*
X14130000Y-9180000D02*
G75*
G03*
X14030000Y-9280000I0J-100000D01*
G01*
X15530000Y-10580000D02*
X15529289Y-9280711D01*
D11*
X14282619Y-10995476D02*
X14282619Y-10795476D01*
X14330238Y-10795476D01*
X14358809Y-10805000D01*
X14377857Y-10824048D01*
X14387381Y-10843095D01*
X14396905Y-10881190D01*
X14396905Y-10909762D01*
X14387381Y-10947857D01*
X14377857Y-10966905D01*
X14358809Y-10985952D01*
X14330238Y-10995476D01*
X14282619Y-10995476D01*
X14482619Y-10995476D02*
X14482619Y-10862143D01*
X14482619Y-10900238D02*
X14492143Y-10881190D01*
X14501667Y-10871667D01*
X14520714Y-10862143D01*
X14539762Y-10862143D01*
X14606428Y-10995476D02*
X14606428Y-10862143D01*
X14606428Y-10795476D02*
X14596905Y-10805000D01*
X14606428Y-10814524D01*
X14615952Y-10805000D01*
X14606428Y-10795476D01*
X14606428Y-10814524D01*
X14730238Y-10995476D02*
X14711190Y-10985952D01*
X14701667Y-10966905D01*
X14701667Y-10795476D01*
X14835000Y-10995476D02*
X14815952Y-10985952D01*
X14806428Y-10966905D01*
X14806428Y-10795476D01*
X15063571Y-10995476D02*
X15063571Y-10795476D01*
X15130238Y-10938333D01*
X15196905Y-10795476D01*
X15196905Y-10995476D01*
X15377857Y-10995476D02*
X15377857Y-10890714D01*
X15368333Y-10871667D01*
X15349286Y-10862143D01*
X15311190Y-10862143D01*
X15292143Y-10871667D01*
X15377857Y-10985952D02*
X15358809Y-10995476D01*
X15311190Y-10995476D01*
X15292143Y-10985952D01*
X15282619Y-10966905D01*
X15282619Y-10947857D01*
X15292143Y-10928810D01*
X15311190Y-10919286D01*
X15358809Y-10919286D01*
X15377857Y-10909762D01*
X15473095Y-10862143D02*
X15473095Y-11062143D01*
X15473095Y-10871667D02*
X15492143Y-10862143D01*
X15530238Y-10862143D01*
X15549286Y-10871667D01*
X15558809Y-10881190D01*
X15568333Y-10900238D01*
X15568333Y-10957381D01*
X15558809Y-10976429D01*
X15549286Y-10985952D01*
X15530238Y-10995476D01*
X15492143Y-10995476D01*
X15473095Y-10985952D01*
X15654048Y-10976429D02*
X15663571Y-10985952D01*
X15654048Y-10995476D01*
X15644524Y-10985952D01*
X15654048Y-10976429D01*
X15654048Y-10995476D01*
X15654048Y-10871667D02*
X15663571Y-10881190D01*
X15654048Y-10890714D01*
X15644524Y-10881190D01*
X15654048Y-10871667D01*
X15654048Y-10890714D01*
M02*
