%TF.GenerationSoftware,KiCad,Pcbnew,(6.0.11)*%
%TF.CreationDate,2024-01-12T21:03:44+00:00*%
%TF.ProjectId,EcoIDSolder,45636f49-4453-46f6-9c64-65722e6b6963,rev?*%
%TF.SameCoordinates,Original*%
%TF.FileFunction,Legend,Bot*%
%TF.FilePolarity,Positive*%
%FSLAX46Y46*%
G04 Gerber Fmt 4.6, Leading zero omitted, Abs format (unit mm)*
G04 Created by KiCad (PCBNEW (6.0.11)) date 2024-01-12 21:03:44*
%MOMM*%
%LPD*%
G01*
G04 APERTURE LIST*
%ADD10C,0.300000*%
%ADD11C,0.200000*%
G04 APERTURE END LIST*
D10*
X178306428Y-95257857D02*
X178092142Y-95329285D01*
X178020714Y-95400714D01*
X177949285Y-95543571D01*
X177949285Y-95757857D01*
X178020714Y-95900714D01*
X178092142Y-95972142D01*
X178235000Y-96043571D01*
X178806428Y-96043571D01*
X178806428Y-94543571D01*
X178306428Y-94543571D01*
X178163571Y-94615000D01*
X178092142Y-94686428D01*
X178020714Y-94829285D01*
X178020714Y-94972142D01*
X178092142Y-95115000D01*
X178163571Y-95186428D01*
X178306428Y-95257857D01*
X178806428Y-95257857D01*
X176806428Y-95257857D02*
X176592142Y-95329285D01*
X176520714Y-95400714D01*
X176449285Y-95543571D01*
X176449285Y-95757857D01*
X176520714Y-95900714D01*
X176592142Y-95972142D01*
X176735000Y-96043571D01*
X177306428Y-96043571D01*
X177306428Y-94543571D01*
X176806428Y-94543571D01*
X176663571Y-94615000D01*
X176592142Y-94686428D01*
X176520714Y-94829285D01*
X176520714Y-94972142D01*
X176592142Y-95115000D01*
X176663571Y-95186428D01*
X176806428Y-95257857D01*
X177306428Y-95257857D01*
X174949285Y-95900714D02*
X175020714Y-95972142D01*
X175235000Y-96043571D01*
X175377857Y-96043571D01*
X175592142Y-95972142D01*
X175735000Y-95829285D01*
X175806428Y-95686428D01*
X175877857Y-95400714D01*
X175877857Y-95186428D01*
X175806428Y-94900714D01*
X175735000Y-94757857D01*
X175592142Y-94615000D01*
X175377857Y-94543571D01*
X175235000Y-94543571D01*
X175020714Y-94615000D01*
X174949285Y-94686428D01*
X173163571Y-95257857D02*
X172663571Y-95257857D01*
X172449285Y-96043571D02*
X173163571Y-96043571D01*
X173163571Y-94543571D01*
X172449285Y-94543571D01*
X171163571Y-95972142D02*
X171306428Y-96043571D01*
X171592142Y-96043571D01*
X171735000Y-95972142D01*
X171806428Y-95900714D01*
X171877857Y-95757857D01*
X171877857Y-95329285D01*
X171806428Y-95186428D01*
X171735000Y-95115000D01*
X171592142Y-95043571D01*
X171306428Y-95043571D01*
X171163571Y-95115000D01*
X170306428Y-96043571D02*
X170449285Y-95972142D01*
X170520714Y-95900714D01*
X170592142Y-95757857D01*
X170592142Y-95329285D01*
X170520714Y-95186428D01*
X170449285Y-95115000D01*
X170306428Y-95043571D01*
X170092142Y-95043571D01*
X169949285Y-95115000D01*
X169877857Y-95186428D01*
X169806428Y-95329285D01*
X169806428Y-95757857D01*
X169877857Y-95900714D01*
X169949285Y-95972142D01*
X170092142Y-96043571D01*
X170306428Y-96043571D01*
X169163571Y-96043571D02*
X169163571Y-94543571D01*
X168449285Y-96043571D02*
X168449285Y-94543571D01*
X168092142Y-94543571D01*
X167877857Y-94615000D01*
X167735000Y-94757857D01*
X167663571Y-94900714D01*
X167592142Y-95186428D01*
X167592142Y-95400714D01*
X167663571Y-95686428D01*
X167735000Y-95829285D01*
X167877857Y-95972142D01*
X168092142Y-96043571D01*
X168449285Y-96043571D01*
X176520714Y-98387142D02*
X176306428Y-98458571D01*
X175949285Y-98458571D01*
X175806428Y-98387142D01*
X175735000Y-98315714D01*
X175663571Y-98172857D01*
X175663571Y-98030000D01*
X175735000Y-97887142D01*
X175806428Y-97815714D01*
X175949285Y-97744285D01*
X176235000Y-97672857D01*
X176377857Y-97601428D01*
X176449285Y-97530000D01*
X176520714Y-97387142D01*
X176520714Y-97244285D01*
X176449285Y-97101428D01*
X176377857Y-97030000D01*
X176235000Y-96958571D01*
X175877857Y-96958571D01*
X175663571Y-97030000D01*
X174806428Y-98458571D02*
X174949285Y-98387142D01*
X175020714Y-98315714D01*
X175092142Y-98172857D01*
X175092142Y-97744285D01*
X175020714Y-97601428D01*
X174949285Y-97530000D01*
X174806428Y-97458571D01*
X174592142Y-97458571D01*
X174449285Y-97530000D01*
X174377857Y-97601428D01*
X174306428Y-97744285D01*
X174306428Y-98172857D01*
X174377857Y-98315714D01*
X174449285Y-98387142D01*
X174592142Y-98458571D01*
X174806428Y-98458571D01*
X173449285Y-98458571D02*
X173592142Y-98387142D01*
X173663571Y-98244285D01*
X173663571Y-96958571D01*
X172235000Y-98458571D02*
X172235000Y-96958571D01*
X172235000Y-98387142D02*
X172377857Y-98458571D01*
X172663571Y-98458571D01*
X172806428Y-98387142D01*
X172877857Y-98315714D01*
X172949285Y-98172857D01*
X172949285Y-97744285D01*
X172877857Y-97601428D01*
X172806428Y-97530000D01*
X172663571Y-97458571D01*
X172377857Y-97458571D01*
X172235000Y-97530000D01*
X170949285Y-98387142D02*
X171092142Y-98458571D01*
X171377857Y-98458571D01*
X171520714Y-98387142D01*
X171592142Y-98244285D01*
X171592142Y-97672857D01*
X171520714Y-97530000D01*
X171377857Y-97458571D01*
X171092142Y-97458571D01*
X170949285Y-97530000D01*
X170877857Y-97672857D01*
X170877857Y-97815714D01*
X171592142Y-97958571D01*
X170235000Y-98458571D02*
X170235000Y-97458571D01*
X170235000Y-97744285D02*
X170163571Y-97601428D01*
X170092142Y-97530000D01*
X169949285Y-97458571D01*
X169806428Y-97458571D01*
X175377857Y-99873571D02*
X175020714Y-100873571D01*
X174663571Y-99873571D01*
X173806428Y-99373571D02*
X173663571Y-99373571D01*
X173520714Y-99445000D01*
X173449285Y-99516428D01*
X173377857Y-99659285D01*
X173306428Y-99945000D01*
X173306428Y-100302142D01*
X173377857Y-100587857D01*
X173449285Y-100730714D01*
X173520714Y-100802142D01*
X173663571Y-100873571D01*
X173806428Y-100873571D01*
X173949285Y-100802142D01*
X174020714Y-100730714D01*
X174092142Y-100587857D01*
X174163571Y-100302142D01*
X174163571Y-99945000D01*
X174092142Y-99659285D01*
X174020714Y-99516428D01*
X173949285Y-99445000D01*
X173806428Y-99373571D01*
X172663571Y-100730714D02*
X172592142Y-100802142D01*
X172663571Y-100873571D01*
X172735000Y-100802142D01*
X172663571Y-100730714D01*
X172663571Y-100873571D01*
X172020714Y-99516428D02*
X171949285Y-99445000D01*
X171806428Y-99373571D01*
X171449285Y-99373571D01*
X171306428Y-99445000D01*
X171235000Y-99516428D01*
X171163571Y-99659285D01*
X171163571Y-99802142D01*
X171235000Y-100016428D01*
X172092142Y-100873571D01*
X171163571Y-100873571D01*
D11*
X168317619Y-85699047D02*
X167603333Y-85699047D01*
X167460476Y-85746666D01*
X167365238Y-85841904D01*
X167317619Y-85984761D01*
X167317619Y-86080000D01*
X167317619Y-84746666D02*
X167317619Y-85222857D01*
X168317619Y-85222857D01*
X167412857Y-83841904D02*
X167365238Y-83889523D01*
X167317619Y-84032380D01*
X167317619Y-84127619D01*
X167365238Y-84270476D01*
X167460476Y-84365714D01*
X167555714Y-84413333D01*
X167746190Y-84460952D01*
X167889047Y-84460952D01*
X168079523Y-84413333D01*
X168174761Y-84365714D01*
X168270000Y-84270476D01*
X168317619Y-84127619D01*
X168317619Y-84032380D01*
X168270000Y-83889523D01*
X168222380Y-83841904D01*
X168317619Y-83127619D02*
X167603333Y-83127619D01*
X167460476Y-83175238D01*
X167365238Y-83270476D01*
X167317619Y-83413333D01*
X167317619Y-83508571D01*
X167317619Y-82175238D02*
X167317619Y-82651428D01*
X168317619Y-82651428D01*
X167412857Y-81270476D02*
X167365238Y-81318095D01*
X167317619Y-81460952D01*
X167317619Y-81556190D01*
X167365238Y-81699047D01*
X167460476Y-81794285D01*
X167555714Y-81841904D01*
X167746190Y-81889523D01*
X167889047Y-81889523D01*
X168079523Y-81841904D01*
X168174761Y-81794285D01*
X168270000Y-81699047D01*
X168317619Y-81556190D01*
X168317619Y-81460952D01*
X168270000Y-81318095D01*
X168222380Y-81270476D01*
X168317619Y-80556190D02*
X167603333Y-80556190D01*
X167460476Y-80603809D01*
X167365238Y-80699047D01*
X167317619Y-80841904D01*
X167317619Y-80937142D01*
X167317619Y-79603809D02*
X167317619Y-80080000D01*
X168317619Y-80080000D01*
X167412857Y-78699047D02*
X167365238Y-78746666D01*
X167317619Y-78889523D01*
X167317619Y-78984761D01*
X167365238Y-79127619D01*
X167460476Y-79222857D01*
X167555714Y-79270476D01*
X167746190Y-79318095D01*
X167889047Y-79318095D01*
X168079523Y-79270476D01*
X168174761Y-79222857D01*
X168270000Y-79127619D01*
X168317619Y-78984761D01*
X168317619Y-78889523D01*
X168270000Y-78746666D01*
X168222380Y-78699047D01*
X168317619Y-77984761D02*
X167603333Y-77984761D01*
X167460476Y-78032380D01*
X167365238Y-78127619D01*
X167317619Y-78270476D01*
X167317619Y-78365714D01*
X167317619Y-77032380D02*
X167317619Y-77508571D01*
X168317619Y-77508571D01*
X167412857Y-76127619D02*
X167365238Y-76175238D01*
X167317619Y-76318095D01*
X167317619Y-76413333D01*
X167365238Y-76556190D01*
X167460476Y-76651428D01*
X167555714Y-76699047D01*
X167746190Y-76746666D01*
X167889047Y-76746666D01*
X168079523Y-76699047D01*
X168174761Y-76651428D01*
X168270000Y-76556190D01*
X168317619Y-76413333D01*
X168317619Y-76318095D01*
X168270000Y-76175238D01*
X168222380Y-76127619D01*
M02*
