%TF.GenerationSoftware,KiCad,Pcbnew,(6.0.11)*%
%TF.CreationDate,2024-01-05T01:14:00+00:00*%
%TF.ProjectId,EcoIDSolder,45636f49-4453-46f6-9c64-65722e6b6963,rev?*%
%TF.SameCoordinates,Original*%
%TF.FileFunction,Copper,L1,Top*%
%TF.FilePolarity,Positive*%
%FSLAX46Y46*%
G04 Gerber Fmt 4.6, Leading zero omitted, Abs format (unit mm)*
G04 Created by KiCad (PCBNEW (6.0.11)) date 2024-01-05 01:14:00*
%MOMM*%
%LPD*%
G01*
G04 APERTURE LIST*
G04 Aperture macros list*
%AMFreePoly0*
4,1,6,1.000000,0.000000,0.500000,-0.750000,-0.500000,-0.750000,-0.500000,0.750000,0.500000,0.750000,1.000000,0.000000,1.000000,0.000000,$1*%
%AMFreePoly1*
4,1,6,0.500000,-0.750000,-0.650000,-0.750000,-0.150000,0.000000,-0.650000,0.750000,0.500000,0.750000,0.500000,-0.750000,0.500000,-0.750000,$1*%
G04 Aperture macros list end*
%TA.AperFunction,SMDPad,CuDef*%
%ADD10FreePoly0,0.000000*%
%TD*%
%TA.AperFunction,SMDPad,CuDef*%
%ADD11FreePoly1,0.000000*%
%TD*%
%TA.AperFunction,ViaPad*%
%ADD12C,0.800000*%
%TD*%
%TA.AperFunction,Conductor*%
%ADD13C,0.250000*%
%TD*%
G04 APERTURE END LIST*
D10*
%TO.P,JP2,1,A*%
%TO.N,/1_out*%
X147075000Y-73900000D03*
D11*
%TO.P,JP2,2,B*%
%TO.N,/1_in*%
X148525000Y-73900000D03*
%TD*%
D10*
%TO.P,JP8,1,A*%
%TO.N,/7_out*%
X147075000Y-90442858D03*
D11*
%TO.P,JP8,2,B*%
%TO.N,/7_in*%
X148525000Y-90442858D03*
%TD*%
D10*
%TO.P,JP7,1,A*%
%TO.N,/6_out*%
X147075000Y-87685710D03*
D11*
%TO.P,JP7,2,B*%
%TO.N,/6_in*%
X148525000Y-87685710D03*
%TD*%
D10*
%TO.P,JP4,1,A*%
%TO.N,/3_out*%
X147075000Y-79414284D03*
D11*
%TO.P,JP4,2,B*%
%TO.N,/3_in*%
X148525000Y-79414284D03*
%TD*%
D10*
%TO.P,JP5,1,A*%
%TO.N,/4_out*%
X147075000Y-82171426D03*
D11*
%TO.P,JP5,2,B*%
%TO.N,/4_in*%
X148525000Y-82171426D03*
%TD*%
D10*
%TO.P,JP3,1,A*%
%TO.N,/2_out*%
X147075000Y-76657142D03*
D11*
%TO.P,JP3,2,B*%
%TO.N,/2_in*%
X148525000Y-76657142D03*
%TD*%
D10*
%TO.P,JP1,1,A*%
%TO.N,/0_out*%
X147075000Y-71142858D03*
D11*
%TO.P,JP1,2,B*%
%TO.N,/0_in*%
X148525000Y-71142858D03*
%TD*%
D10*
%TO.P,JP6,1,A*%
%TO.N,/5_out*%
X147075000Y-84928568D03*
D11*
%TO.P,JP6,2,B*%
%TO.N,/5_in*%
X148525000Y-84928568D03*
%TD*%
D12*
%TO.N,/0_out*%
X145400000Y-71900000D03*
%TO.N,/0_in*%
X150000000Y-71900000D03*
%TO.N,/1_out*%
X145400000Y-74500000D03*
%TO.N,/1_in*%
X150100000Y-74500000D03*
%TO.N,/2_out*%
X145200000Y-77000000D03*
%TO.N,/2_in*%
X150000000Y-77000000D03*
%TO.N,/3_out*%
X145200000Y-79600000D03*
%TO.N,/3_in*%
X150000000Y-79600000D03*
%TO.N,/4_out*%
X145300000Y-82100000D03*
%TO.N,/4_in*%
X150000000Y-82100000D03*
%TO.N,/5_out*%
X145400000Y-84600000D03*
%TO.N,/5_in*%
X150000000Y-84700000D03*
%TO.N,/6_out*%
X145300000Y-87200000D03*
%TO.N,/6_in*%
X150000000Y-87200000D03*
%TO.N,/7_out*%
X145400000Y-89700000D03*
%TO.N,/7_in*%
X150000000Y-89700000D03*
%TD*%
D13*
%TO.N,/0_out*%
X145400000Y-71900000D02*
X146317858Y-71900000D01*
X146317858Y-71900000D02*
X147075000Y-71142858D01*
%TO.N,/0_in*%
X149282142Y-71900000D02*
X148525000Y-71142858D01*
X150000000Y-71900000D02*
X149282142Y-71900000D01*
%TO.N,/1_out*%
X145400000Y-74500000D02*
X146475000Y-74500000D01*
X146475000Y-74500000D02*
X147075000Y-73900000D01*
%TO.N,/1_in*%
X150100000Y-74500000D02*
X149125000Y-74500000D01*
X149125000Y-74500000D02*
X148525000Y-73900000D01*
%TO.N,/2_out*%
X146732142Y-77000000D02*
X147075000Y-76657142D01*
X145200000Y-77000000D02*
X146732142Y-77000000D01*
%TO.N,/2_in*%
X150000000Y-77000000D02*
X148867858Y-77000000D01*
X148867858Y-77000000D02*
X148525000Y-76657142D01*
%TO.N,/3_out*%
X145200000Y-79600000D02*
X146889284Y-79600000D01*
X146889284Y-79600000D02*
X147075000Y-79414284D01*
%TO.N,/3_in*%
X150000000Y-79600000D02*
X148710716Y-79600000D01*
X148710716Y-79600000D02*
X148525000Y-79414284D01*
%TO.N,/4_out*%
X147003574Y-82100000D02*
X147075000Y-82171426D01*
X145300000Y-82100000D02*
X147003574Y-82100000D01*
%TO.N,/4_in*%
X148596426Y-82100000D02*
X148525000Y-82171426D01*
X150000000Y-82100000D02*
X148596426Y-82100000D01*
%TO.N,/5_out*%
X145400000Y-84600000D02*
X146746432Y-84600000D01*
X146746432Y-84600000D02*
X147075000Y-84928568D01*
%TO.N,/5_in*%
X150000000Y-84700000D02*
X148753568Y-84700000D01*
X148753568Y-84700000D02*
X148525000Y-84928568D01*
%TO.N,/6_out*%
X145300000Y-87200000D02*
X146589290Y-87200000D01*
X146589290Y-87200000D02*
X147075000Y-87685710D01*
%TO.N,/6_in*%
X149010710Y-87200000D02*
X148525000Y-87685710D01*
X150000000Y-87200000D02*
X149010710Y-87200000D01*
%TO.N,/7_out*%
X146332142Y-89700000D02*
X147075000Y-90442858D01*
X145400000Y-89700000D02*
X146332142Y-89700000D01*
%TO.N,/7_in*%
X150000000Y-89700000D02*
X149267858Y-89700000D01*
X149267858Y-89700000D02*
X148525000Y-90442858D01*
%TD*%
M02*
