%TF.GenerationSoftware,KiCad,Pcbnew,(6.0.11)*%
%TF.CreationDate,2024-01-05T01:14:39+00:00*%
%TF.ProjectId,EcoIDSwitch,45636f49-4453-4776-9974-63682e6b6963,rev?*%
%TF.SameCoordinates,Original*%
%TF.FileFunction,Legend,Bot*%
%TF.FilePolarity,Positive*%
%FSLAX46Y46*%
G04 Gerber Fmt 4.6, Leading zero omitted, Abs format (unit mm)*
G04 Created by KiCad (PCBNEW (6.0.11)) date 2024-01-05 01:14:39*
%MOMM*%
%LPD*%
G01*
G04 APERTURE LIST*
%ADD10C,0.300000*%
G04 APERTURE END LIST*
D10*
X166821428Y-93157857D02*
X166607142Y-93229285D01*
X166535714Y-93300714D01*
X166464285Y-93443571D01*
X166464285Y-93657857D01*
X166535714Y-93800714D01*
X166607142Y-93872142D01*
X166750000Y-93943571D01*
X167321428Y-93943571D01*
X167321428Y-92443571D01*
X166821428Y-92443571D01*
X166678571Y-92515000D01*
X166607142Y-92586428D01*
X166535714Y-92729285D01*
X166535714Y-92872142D01*
X166607142Y-93015000D01*
X166678571Y-93086428D01*
X166821428Y-93157857D01*
X167321428Y-93157857D01*
X165321428Y-93157857D02*
X165107142Y-93229285D01*
X165035714Y-93300714D01*
X164964285Y-93443571D01*
X164964285Y-93657857D01*
X165035714Y-93800714D01*
X165107142Y-93872142D01*
X165250000Y-93943571D01*
X165821428Y-93943571D01*
X165821428Y-92443571D01*
X165321428Y-92443571D01*
X165178571Y-92515000D01*
X165107142Y-92586428D01*
X165035714Y-92729285D01*
X165035714Y-92872142D01*
X165107142Y-93015000D01*
X165178571Y-93086428D01*
X165321428Y-93157857D01*
X165821428Y-93157857D01*
X163464285Y-93800714D02*
X163535714Y-93872142D01*
X163750000Y-93943571D01*
X163892857Y-93943571D01*
X164107142Y-93872142D01*
X164250000Y-93729285D01*
X164321428Y-93586428D01*
X164392857Y-93300714D01*
X164392857Y-93086428D01*
X164321428Y-92800714D01*
X164250000Y-92657857D01*
X164107142Y-92515000D01*
X163892857Y-92443571D01*
X163750000Y-92443571D01*
X163535714Y-92515000D01*
X163464285Y-92586428D01*
X161678571Y-93157857D02*
X161178571Y-93157857D01*
X160964285Y-93943571D02*
X161678571Y-93943571D01*
X161678571Y-92443571D01*
X160964285Y-92443571D01*
X159678571Y-93872142D02*
X159821428Y-93943571D01*
X160107142Y-93943571D01*
X160250000Y-93872142D01*
X160321428Y-93800714D01*
X160392857Y-93657857D01*
X160392857Y-93229285D01*
X160321428Y-93086428D01*
X160250000Y-93015000D01*
X160107142Y-92943571D01*
X159821428Y-92943571D01*
X159678571Y-93015000D01*
X158821428Y-93943571D02*
X158964285Y-93872142D01*
X159035714Y-93800714D01*
X159107142Y-93657857D01*
X159107142Y-93229285D01*
X159035714Y-93086428D01*
X158964285Y-93015000D01*
X158821428Y-92943571D01*
X158607142Y-92943571D01*
X158464285Y-93015000D01*
X158392857Y-93086428D01*
X158321428Y-93229285D01*
X158321428Y-93657857D01*
X158392857Y-93800714D01*
X158464285Y-93872142D01*
X158607142Y-93943571D01*
X158821428Y-93943571D01*
X157678571Y-93943571D02*
X157678571Y-92443571D01*
X156964285Y-93943571D02*
X156964285Y-92443571D01*
X156607142Y-92443571D01*
X156392857Y-92515000D01*
X156250000Y-92657857D01*
X156178571Y-92800714D01*
X156107142Y-93086428D01*
X156107142Y-93300714D01*
X156178571Y-93586428D01*
X156250000Y-93729285D01*
X156392857Y-93872142D01*
X156607142Y-93943571D01*
X156964285Y-93943571D01*
X165071428Y-96287142D02*
X164857142Y-96358571D01*
X164500000Y-96358571D01*
X164357142Y-96287142D01*
X164285714Y-96215714D01*
X164214285Y-96072857D01*
X164214285Y-95930000D01*
X164285714Y-95787142D01*
X164357142Y-95715714D01*
X164500000Y-95644285D01*
X164785714Y-95572857D01*
X164928571Y-95501428D01*
X165000000Y-95430000D01*
X165071428Y-95287142D01*
X165071428Y-95144285D01*
X165000000Y-95001428D01*
X164928571Y-94930000D01*
X164785714Y-94858571D01*
X164428571Y-94858571D01*
X164214285Y-94930000D01*
X163714285Y-95358571D02*
X163428571Y-96358571D01*
X163142857Y-95644285D01*
X162857142Y-96358571D01*
X162571428Y-95358571D01*
X162000000Y-96358571D02*
X162000000Y-95358571D01*
X162000000Y-94858571D02*
X162071428Y-94930000D01*
X162000000Y-95001428D01*
X161928571Y-94930000D01*
X162000000Y-94858571D01*
X162000000Y-95001428D01*
X161500000Y-95358571D02*
X160928571Y-95358571D01*
X161285714Y-94858571D02*
X161285714Y-96144285D01*
X161214285Y-96287142D01*
X161071428Y-96358571D01*
X160928571Y-96358571D01*
X159785714Y-96287142D02*
X159928571Y-96358571D01*
X160214285Y-96358571D01*
X160357142Y-96287142D01*
X160428571Y-96215714D01*
X160500000Y-96072857D01*
X160500000Y-95644285D01*
X160428571Y-95501428D01*
X160357142Y-95430000D01*
X160214285Y-95358571D01*
X159928571Y-95358571D01*
X159785714Y-95430000D01*
X159142857Y-96358571D02*
X159142857Y-94858571D01*
X158500000Y-96358571D02*
X158500000Y-95572857D01*
X158571428Y-95430000D01*
X158714285Y-95358571D01*
X158928571Y-95358571D01*
X159071428Y-95430000D01*
X159142857Y-95501428D01*
X163892857Y-97773571D02*
X163535714Y-98773571D01*
X163178571Y-97773571D01*
X162321428Y-97273571D02*
X162178571Y-97273571D01*
X162035714Y-97345000D01*
X161964285Y-97416428D01*
X161892857Y-97559285D01*
X161821428Y-97845000D01*
X161821428Y-98202142D01*
X161892857Y-98487857D01*
X161964285Y-98630714D01*
X162035714Y-98702142D01*
X162178571Y-98773571D01*
X162321428Y-98773571D01*
X162464285Y-98702142D01*
X162535714Y-98630714D01*
X162607142Y-98487857D01*
X162678571Y-98202142D01*
X162678571Y-97845000D01*
X162607142Y-97559285D01*
X162535714Y-97416428D01*
X162464285Y-97345000D01*
X162321428Y-97273571D01*
X161178571Y-98630714D02*
X161107142Y-98702142D01*
X161178571Y-98773571D01*
X161250000Y-98702142D01*
X161178571Y-98630714D01*
X161178571Y-98773571D01*
X159678571Y-98773571D02*
X160535714Y-98773571D01*
X160107142Y-98773571D02*
X160107142Y-97273571D01*
X160250000Y-97487857D01*
X160392857Y-97630714D01*
X160535714Y-97702142D01*
M02*
