%TF.GenerationSoftware,KiCad,Pcbnew,(6.0.11)*%
%TF.CreationDate,2024-01-12T21:03:44+00:00*%
%TF.ProjectId,EcoIDSolder,45636f49-4453-46f6-9c64-65722e6b6963,rev?*%
%TF.SameCoordinates,Original*%
%TF.FileFunction,Copper,L1,Top*%
%TF.FilePolarity,Positive*%
%FSLAX46Y46*%
G04 Gerber Fmt 4.6, Leading zero omitted, Abs format (unit mm)*
G04 Created by KiCad (PCBNEW (6.0.11)) date 2024-01-12 21:03:44*
%MOMM*%
%LPD*%
G01*
G04 APERTURE LIST*
G04 Aperture macros list*
%AMFreePoly0*
4,1,6,1.000000,0.000000,0.500000,-0.750000,-0.500000,-0.750000,-0.500000,0.750000,0.500000,0.750000,1.000000,0.000000,1.000000,0.000000,$1*%
%AMFreePoly1*
4,1,6,0.500000,-0.750000,-0.650000,-0.750000,-0.150000,0.000000,-0.650000,0.750000,0.500000,0.750000,0.500000,-0.750000,0.500000,-0.750000,$1*%
G04 Aperture macros list end*
%TA.AperFunction,SMDPad,CuDef*%
%ADD10FreePoly0,0.000000*%
%TD*%
%TA.AperFunction,SMDPad,CuDef*%
%ADD11FreePoly1,0.000000*%
%TD*%
%TA.AperFunction,ViaPad*%
%ADD12C,0.800000*%
%TD*%
%TA.AperFunction,Conductor*%
%ADD13C,0.250000*%
%TD*%
G04 APERTURE END LIST*
D10*
%TO.P,JP4,1,A*%
%TO.N,/3_out*%
X172605000Y-79644284D03*
D11*
%TO.P,JP4,2,B*%
%TO.N,/3_in*%
X174055000Y-79644284D03*
%TD*%
D10*
%TO.P,JP7,1,A*%
%TO.N,/6_out*%
X172605000Y-87915710D03*
D11*
%TO.P,JP7,2,B*%
%TO.N,/6_in*%
X174055000Y-87915710D03*
%TD*%
D10*
%TO.P,JP2,1,A*%
%TO.N,/1_out*%
X172605000Y-74130000D03*
D11*
%TO.P,JP2,2,B*%
%TO.N,/1_in*%
X174055000Y-74130000D03*
%TD*%
D10*
%TO.P,JP1,1,A*%
%TO.N,/0_out*%
X172605000Y-71372858D03*
D11*
%TO.P,JP1,2,B*%
%TO.N,/0_in*%
X174055000Y-71372858D03*
%TD*%
D10*
%TO.P,JP5,1,A*%
%TO.N,/4_out*%
X172605000Y-82401426D03*
D11*
%TO.P,JP5,2,B*%
%TO.N,/4_in*%
X174055000Y-82401426D03*
%TD*%
D10*
%TO.P,JP8,1,A*%
%TO.N,/7_out*%
X172605000Y-90672858D03*
D11*
%TO.P,JP8,2,B*%
%TO.N,/7_in*%
X174055000Y-90672858D03*
%TD*%
D10*
%TO.P,JP3,1,A*%
%TO.N,/2_out*%
X172605000Y-76887142D03*
D11*
%TO.P,JP3,2,B*%
%TO.N,/2_in*%
X174055000Y-76887142D03*
%TD*%
D10*
%TO.P,JP6,1,A*%
%TO.N,/5_out*%
X172605000Y-85158568D03*
D11*
%TO.P,JP6,2,B*%
%TO.N,/5_in*%
X174055000Y-85158568D03*
%TD*%
D12*
%TO.N,/0_out*%
X170930000Y-72130000D03*
%TO.N,/0_in*%
X175530000Y-72130000D03*
%TO.N,/1_out*%
X170930000Y-74730000D03*
%TO.N,/1_in*%
X175630000Y-74730000D03*
%TO.N,/2_out*%
X170730000Y-77230000D03*
%TO.N,/2_in*%
X175530000Y-77230000D03*
%TO.N,/3_out*%
X170730000Y-79830000D03*
%TO.N,/3_in*%
X175530000Y-79830000D03*
%TO.N,/4_out*%
X170830000Y-82330000D03*
%TO.N,/4_in*%
X175530000Y-82330000D03*
%TO.N,/5_out*%
X170930000Y-84830000D03*
%TO.N,/5_in*%
X175530000Y-84930000D03*
%TO.N,/6_out*%
X170830000Y-87430000D03*
%TO.N,/6_in*%
X175530000Y-87430000D03*
%TO.N,/7_out*%
X170930000Y-89930000D03*
%TO.N,/7_in*%
X175530000Y-89930000D03*
%TD*%
D13*
%TO.N,/0_out*%
X170930000Y-72130000D02*
X171847858Y-72130000D01*
X171847858Y-72130000D02*
X172605000Y-71372858D01*
%TO.N,/0_in*%
X175530000Y-72130000D02*
X174812142Y-72130000D01*
X174812142Y-72130000D02*
X174055000Y-71372858D01*
%TO.N,/1_out*%
X170930000Y-74730000D02*
X172005000Y-74730000D01*
X172005000Y-74730000D02*
X172605000Y-74130000D01*
%TO.N,/1_in*%
X175630000Y-74730000D02*
X174655000Y-74730000D01*
X174655000Y-74730000D02*
X174055000Y-74130000D01*
%TO.N,/2_out*%
X170730000Y-77230000D02*
X172262142Y-77230000D01*
X172262142Y-77230000D02*
X172605000Y-76887142D01*
%TO.N,/2_in*%
X175530000Y-77230000D02*
X174397858Y-77230000D01*
X174397858Y-77230000D02*
X174055000Y-76887142D01*
%TO.N,/3_out*%
X172419284Y-79830000D02*
X172605000Y-79644284D01*
X170730000Y-79830000D02*
X172419284Y-79830000D01*
%TO.N,/3_in*%
X174240716Y-79830000D02*
X174055000Y-79644284D01*
X175530000Y-79830000D02*
X174240716Y-79830000D01*
%TO.N,/4_out*%
X172533574Y-82330000D02*
X172605000Y-82401426D01*
X170830000Y-82330000D02*
X172533574Y-82330000D01*
%TO.N,/4_in*%
X175530000Y-82330000D02*
X174126426Y-82330000D01*
X174126426Y-82330000D02*
X174055000Y-82401426D01*
%TO.N,/5_out*%
X170930000Y-84830000D02*
X172276432Y-84830000D01*
X172276432Y-84830000D02*
X172605000Y-85158568D01*
%TO.N,/5_in*%
X175530000Y-84930000D02*
X174283568Y-84930000D01*
X174283568Y-84930000D02*
X174055000Y-85158568D01*
%TO.N,/6_out*%
X170830000Y-87430000D02*
X172119290Y-87430000D01*
X172119290Y-87430000D02*
X172605000Y-87915710D01*
%TO.N,/6_in*%
X174540710Y-87430000D02*
X174055000Y-87915710D01*
X175530000Y-87430000D02*
X174540710Y-87430000D01*
%TO.N,/7_out*%
X171862142Y-89930000D02*
X172605000Y-90672858D01*
X170930000Y-89930000D02*
X171862142Y-89930000D01*
%TO.N,/7_in*%
X175530000Y-89930000D02*
X174797858Y-89930000D01*
X174797858Y-89930000D02*
X174055000Y-90672858D01*
%TD*%
M02*
