%TF.GenerationSoftware,KiCad,Pcbnew,(6.0.11)*%
%TF.CreationDate,2024-01-12T21:04:41+00:00*%
%TF.ProjectId,EcoIDSwitch,45636f49-4453-4776-9974-63682e6b6963,rev?*%
%TF.SameCoordinates,Original*%
%TF.FileFunction,Drillmap*%
%TF.FilePolarity,Positive*%
%FSLAX45Y45*%
G04 Gerber Fmt 4.5, Leading zero omitted, Abs format (unit mm)*
G04 Created by KiCad (PCBNEW (6.0.11)) date 2024-01-12 21:04:41*
%MOMM*%
%LPD*%
G01*
G04 APERTURE LIST*
%ADD10C,0.100000*%
%ADD11C,0.200000*%
%ADD12C,0.040000*%
G04 APERTURE END LIST*
D10*
X16810000Y-6810000D02*
X15540000Y-6810000D01*
X15540000Y-6810000D02*
X15540000Y-10180000D01*
X16810000Y-10180000D02*
X16810000Y-6810000D01*
X15540000Y-10180000D02*
X16810000Y-10180000D01*
D11*
D12*
X15900500Y-6998500D02*
X15940500Y-7038500D01*
X15940500Y-6998500D02*
X15900500Y-7038500D01*
X15900500Y-7252500D02*
X15940500Y-7292500D01*
X15940500Y-7252500D02*
X15900500Y-7292500D01*
X15900500Y-7506500D02*
X15940500Y-7546500D01*
X15940500Y-7506500D02*
X15900500Y-7546500D01*
X15900500Y-7760500D02*
X15940500Y-7800500D01*
X15940500Y-7760500D02*
X15900500Y-7800500D01*
X15900500Y-8014500D02*
X15940500Y-8054500D01*
X15940500Y-8014500D02*
X15900500Y-8054500D01*
X15900500Y-8268500D02*
X15940500Y-8308500D01*
X15940500Y-8268500D02*
X15900500Y-8308500D01*
X15900500Y-8522500D02*
X15940500Y-8562500D01*
X15940500Y-8522500D02*
X15900500Y-8562500D01*
X15900500Y-8776500D02*
X15940500Y-8816500D01*
X15940500Y-8776500D02*
X15900500Y-8816500D01*
X16404500Y-6998500D02*
X16444500Y-7038500D01*
X16444500Y-6998500D02*
X16404500Y-7038500D01*
X16404500Y-7252500D02*
X16444500Y-7292500D01*
X16444500Y-7252500D02*
X16404500Y-7292500D01*
X16404500Y-7506500D02*
X16444500Y-7546500D01*
X16444500Y-7506500D02*
X16404500Y-7546500D01*
X16404500Y-7760500D02*
X16444500Y-7800500D01*
X16444500Y-7760500D02*
X16404500Y-7800500D01*
X16404500Y-8014500D02*
X16444500Y-8054500D01*
X16444500Y-8014500D02*
X16404500Y-8054500D01*
X16404500Y-8268500D02*
X16444500Y-8308500D01*
X16444500Y-8268500D02*
X16404500Y-8308500D01*
X16404500Y-8522500D02*
X16444500Y-8562500D01*
X16444500Y-8522500D02*
X16404500Y-8562500D01*
X16404500Y-8776500D02*
X16444500Y-8816500D01*
X16444500Y-8776500D02*
X16404500Y-8816500D01*
D11*
X15792619Y-10495476D02*
X15792619Y-10295476D01*
X15840238Y-10295476D01*
X15868809Y-10305000D01*
X15887857Y-10324048D01*
X15897381Y-10343095D01*
X15906905Y-10381190D01*
X15906905Y-10409762D01*
X15897381Y-10447857D01*
X15887857Y-10466905D01*
X15868809Y-10485952D01*
X15840238Y-10495476D01*
X15792619Y-10495476D01*
X15992619Y-10495476D02*
X15992619Y-10362143D01*
X15992619Y-10400238D02*
X16002143Y-10381190D01*
X16011667Y-10371667D01*
X16030714Y-10362143D01*
X16049762Y-10362143D01*
X16116428Y-10495476D02*
X16116428Y-10362143D01*
X16116428Y-10295476D02*
X16106905Y-10305000D01*
X16116428Y-10314524D01*
X16125952Y-10305000D01*
X16116428Y-10295476D01*
X16116428Y-10314524D01*
X16240238Y-10495476D02*
X16221190Y-10485952D01*
X16211667Y-10466905D01*
X16211667Y-10295476D01*
X16345000Y-10495476D02*
X16325952Y-10485952D01*
X16316428Y-10466905D01*
X16316428Y-10295476D01*
X16573571Y-10495476D02*
X16573571Y-10295476D01*
X16640238Y-10438333D01*
X16706905Y-10295476D01*
X16706905Y-10495476D01*
X16887857Y-10495476D02*
X16887857Y-10390714D01*
X16878333Y-10371667D01*
X16859286Y-10362143D01*
X16821190Y-10362143D01*
X16802143Y-10371667D01*
X16887857Y-10485952D02*
X16868810Y-10495476D01*
X16821190Y-10495476D01*
X16802143Y-10485952D01*
X16792619Y-10466905D01*
X16792619Y-10447857D01*
X16802143Y-10428810D01*
X16821190Y-10419286D01*
X16868810Y-10419286D01*
X16887857Y-10409762D01*
X16983095Y-10362143D02*
X16983095Y-10562143D01*
X16983095Y-10371667D02*
X17002143Y-10362143D01*
X17040238Y-10362143D01*
X17059286Y-10371667D01*
X17068810Y-10381190D01*
X17078333Y-10400238D01*
X17078333Y-10457381D01*
X17068810Y-10476429D01*
X17059286Y-10485952D01*
X17040238Y-10495476D01*
X17002143Y-10495476D01*
X16983095Y-10485952D01*
X17164048Y-10476429D02*
X17173571Y-10485952D01*
X17164048Y-10495476D01*
X17154524Y-10485952D01*
X17164048Y-10476429D01*
X17164048Y-10495476D01*
X17164048Y-10371667D02*
X17173571Y-10381190D01*
X17164048Y-10390714D01*
X17154524Y-10381190D01*
X17164048Y-10371667D01*
X17164048Y-10390714D01*
D12*
X15495000Y-10805000D02*
X15535000Y-10845000D01*
X15535000Y-10805000D02*
X15495000Y-10845000D01*
D11*
X15830714Y-10715476D02*
X15849762Y-10715476D01*
X15868809Y-10725000D01*
X15878333Y-10734524D01*
X15887857Y-10753571D01*
X15897381Y-10791667D01*
X15897381Y-10839286D01*
X15887857Y-10877381D01*
X15878333Y-10896429D01*
X15868809Y-10905952D01*
X15849762Y-10915476D01*
X15830714Y-10915476D01*
X15811667Y-10905952D01*
X15802143Y-10896429D01*
X15792619Y-10877381D01*
X15783095Y-10839286D01*
X15783095Y-10791667D01*
X15792619Y-10753571D01*
X15802143Y-10734524D01*
X15811667Y-10725000D01*
X15830714Y-10715476D01*
X15983095Y-10896429D02*
X15992619Y-10905952D01*
X15983095Y-10915476D01*
X15973571Y-10905952D01*
X15983095Y-10896429D01*
X15983095Y-10915476D01*
X16164048Y-10782143D02*
X16164048Y-10915476D01*
X16116428Y-10705952D02*
X16068809Y-10848810D01*
X16192619Y-10848810D01*
X16306905Y-10715476D02*
X16325952Y-10715476D01*
X16345000Y-10725000D01*
X16354524Y-10734524D01*
X16364048Y-10753571D01*
X16373571Y-10791667D01*
X16373571Y-10839286D01*
X16364048Y-10877381D01*
X16354524Y-10896429D01*
X16345000Y-10905952D01*
X16325952Y-10915476D01*
X16306905Y-10915476D01*
X16287857Y-10905952D01*
X16278333Y-10896429D01*
X16268809Y-10877381D01*
X16259286Y-10839286D01*
X16259286Y-10791667D01*
X16268809Y-10753571D01*
X16278333Y-10734524D01*
X16287857Y-10725000D01*
X16306905Y-10715476D01*
X16497381Y-10715476D02*
X16516428Y-10715476D01*
X16535476Y-10725000D01*
X16545000Y-10734524D01*
X16554524Y-10753571D01*
X16564048Y-10791667D01*
X16564048Y-10839286D01*
X16554524Y-10877381D01*
X16545000Y-10896429D01*
X16535476Y-10905952D01*
X16516428Y-10915476D01*
X16497381Y-10915476D01*
X16478333Y-10905952D01*
X16468809Y-10896429D01*
X16459286Y-10877381D01*
X16449762Y-10839286D01*
X16449762Y-10791667D01*
X16459286Y-10753571D01*
X16468809Y-10734524D01*
X16478333Y-10725000D01*
X16497381Y-10715476D01*
X16649762Y-10915476D02*
X16649762Y-10782143D01*
X16649762Y-10801190D02*
X16659286Y-10791667D01*
X16678333Y-10782143D01*
X16706905Y-10782143D01*
X16725952Y-10791667D01*
X16735476Y-10810714D01*
X16735476Y-10915476D01*
X16735476Y-10810714D02*
X16745000Y-10791667D01*
X16764048Y-10782143D01*
X16792619Y-10782143D01*
X16811667Y-10791667D01*
X16821190Y-10810714D01*
X16821190Y-10915476D01*
X16916429Y-10915476D02*
X16916429Y-10782143D01*
X16916429Y-10801190D02*
X16925952Y-10791667D01*
X16945000Y-10782143D01*
X16973571Y-10782143D01*
X16992619Y-10791667D01*
X17002143Y-10810714D01*
X17002143Y-10915476D01*
X17002143Y-10810714D02*
X17011667Y-10791667D01*
X17030714Y-10782143D01*
X17059286Y-10782143D01*
X17078333Y-10791667D01*
X17087857Y-10810714D01*
X17087857Y-10915476D01*
X17478333Y-10705952D02*
X17306905Y-10963095D01*
X17735476Y-10715476D02*
X17754524Y-10715476D01*
X17773571Y-10725000D01*
X17783095Y-10734524D01*
X17792619Y-10753571D01*
X17802143Y-10791667D01*
X17802143Y-10839286D01*
X17792619Y-10877381D01*
X17783095Y-10896429D01*
X17773571Y-10905952D01*
X17754524Y-10915476D01*
X17735476Y-10915476D01*
X17716429Y-10905952D01*
X17706905Y-10896429D01*
X17697381Y-10877381D01*
X17687857Y-10839286D01*
X17687857Y-10791667D01*
X17697381Y-10753571D01*
X17706905Y-10734524D01*
X17716429Y-10725000D01*
X17735476Y-10715476D01*
X17887857Y-10896429D02*
X17897381Y-10905952D01*
X17887857Y-10915476D01*
X17878333Y-10905952D01*
X17887857Y-10896429D01*
X17887857Y-10915476D01*
X18021190Y-10715476D02*
X18040238Y-10715476D01*
X18059286Y-10725000D01*
X18068810Y-10734524D01*
X18078333Y-10753571D01*
X18087857Y-10791667D01*
X18087857Y-10839286D01*
X18078333Y-10877381D01*
X18068810Y-10896429D01*
X18059286Y-10905952D01*
X18040238Y-10915476D01*
X18021190Y-10915476D01*
X18002143Y-10905952D01*
X17992619Y-10896429D01*
X17983095Y-10877381D01*
X17973571Y-10839286D01*
X17973571Y-10791667D01*
X17983095Y-10753571D01*
X17992619Y-10734524D01*
X18002143Y-10725000D01*
X18021190Y-10715476D01*
X18278333Y-10915476D02*
X18164048Y-10915476D01*
X18221190Y-10915476D02*
X18221190Y-10715476D01*
X18202143Y-10744048D01*
X18183095Y-10763095D01*
X18164048Y-10772619D01*
X18459286Y-10715476D02*
X18364048Y-10715476D01*
X18354524Y-10810714D01*
X18364048Y-10801190D01*
X18383095Y-10791667D01*
X18430714Y-10791667D01*
X18449762Y-10801190D01*
X18459286Y-10810714D01*
X18468810Y-10829762D01*
X18468810Y-10877381D01*
X18459286Y-10896429D01*
X18449762Y-10905952D01*
X18430714Y-10915476D01*
X18383095Y-10915476D01*
X18364048Y-10905952D01*
X18354524Y-10896429D01*
X18535476Y-10715476D02*
X18668810Y-10715476D01*
X18583095Y-10915476D01*
X18735476Y-10715476D02*
X18735476Y-10753571D01*
X18811667Y-10715476D02*
X18811667Y-10753571D01*
X19106905Y-10991667D02*
X19097381Y-10982143D01*
X19078333Y-10953571D01*
X19068810Y-10934524D01*
X19059286Y-10905952D01*
X19049762Y-10858333D01*
X19049762Y-10820238D01*
X19059286Y-10772619D01*
X19068810Y-10744048D01*
X19078333Y-10725000D01*
X19097381Y-10696429D01*
X19106905Y-10686905D01*
X19287857Y-10915476D02*
X19173571Y-10915476D01*
X19230714Y-10915476D02*
X19230714Y-10715476D01*
X19211667Y-10744048D01*
X19192619Y-10763095D01*
X19173571Y-10772619D01*
X19459286Y-10715476D02*
X19421190Y-10715476D01*
X19402143Y-10725000D01*
X19392619Y-10734524D01*
X19373571Y-10763095D01*
X19364048Y-10801190D01*
X19364048Y-10877381D01*
X19373571Y-10896429D01*
X19383095Y-10905952D01*
X19402143Y-10915476D01*
X19440238Y-10915476D01*
X19459286Y-10905952D01*
X19468810Y-10896429D01*
X19478333Y-10877381D01*
X19478333Y-10829762D01*
X19468810Y-10810714D01*
X19459286Y-10801190D01*
X19440238Y-10791667D01*
X19402143Y-10791667D01*
X19383095Y-10801190D01*
X19373571Y-10810714D01*
X19364048Y-10829762D01*
X19716429Y-10915476D02*
X19716429Y-10715476D01*
X19802143Y-10915476D02*
X19802143Y-10810714D01*
X19792619Y-10791667D01*
X19773571Y-10782143D01*
X19745000Y-10782143D01*
X19725952Y-10791667D01*
X19716429Y-10801190D01*
X19925952Y-10915476D02*
X19906905Y-10905952D01*
X19897381Y-10896429D01*
X19887857Y-10877381D01*
X19887857Y-10820238D01*
X19897381Y-10801190D01*
X19906905Y-10791667D01*
X19925952Y-10782143D01*
X19954524Y-10782143D01*
X19973571Y-10791667D01*
X19983095Y-10801190D01*
X19992619Y-10820238D01*
X19992619Y-10877381D01*
X19983095Y-10896429D01*
X19973571Y-10905952D01*
X19954524Y-10915476D01*
X19925952Y-10915476D01*
X20106905Y-10915476D02*
X20087857Y-10905952D01*
X20078333Y-10886905D01*
X20078333Y-10715476D01*
X20259286Y-10905952D02*
X20240238Y-10915476D01*
X20202143Y-10915476D01*
X20183095Y-10905952D01*
X20173571Y-10886905D01*
X20173571Y-10810714D01*
X20183095Y-10791667D01*
X20202143Y-10782143D01*
X20240238Y-10782143D01*
X20259286Y-10791667D01*
X20268810Y-10810714D01*
X20268810Y-10829762D01*
X20173571Y-10848810D01*
X20345000Y-10905952D02*
X20364048Y-10915476D01*
X20402143Y-10915476D01*
X20421190Y-10905952D01*
X20430714Y-10886905D01*
X20430714Y-10877381D01*
X20421190Y-10858333D01*
X20402143Y-10848810D01*
X20373571Y-10848810D01*
X20354524Y-10839286D01*
X20345000Y-10820238D01*
X20345000Y-10810714D01*
X20354524Y-10791667D01*
X20373571Y-10782143D01*
X20402143Y-10782143D01*
X20421190Y-10791667D01*
X20497381Y-10991667D02*
X20506905Y-10982143D01*
X20525952Y-10953571D01*
X20535476Y-10934524D01*
X20545000Y-10905952D01*
X20554524Y-10858333D01*
X20554524Y-10820238D01*
X20545000Y-10772619D01*
X20535476Y-10744048D01*
X20525952Y-10725000D01*
X20506905Y-10696429D01*
X20497381Y-10686905D01*
M02*
