%TF.GenerationSoftware,KiCad,Pcbnew,(6.0.11)*%
%TF.CreationDate,2024-01-12T21:03:48+00:00*%
%TF.ProjectId,EcoIDSolder,45636f49-4453-46f6-9c64-65722e6b6963,rev?*%
%TF.SameCoordinates,Original*%
%TF.FileFunction,Drillmap*%
%TF.FilePolarity,Positive*%
%FSLAX45Y45*%
G04 Gerber Fmt 4.5, Leading zero omitted, Abs format (unit mm)*
G04 Created by KiCad (PCBNEW (6.0.11)) date 2024-01-12 21:03:48*
%MOMM*%
%LPD*%
G01*
G04 APERTURE LIST*
%ADD10C,0.100000*%
%ADD11C,0.200000*%
%ADD12C,0.040000*%
G04 APERTURE END LIST*
D10*
X16688500Y-10390000D02*
X17958500Y-10390000D01*
X16688500Y-7020000D02*
X16688500Y-10390000D01*
X17958500Y-10390000D02*
X17958500Y-7020000D01*
X17958500Y-7020000D02*
X16688500Y-7020000D01*
D11*
D12*
X17053000Y-7703000D02*
X17093000Y-7743000D01*
X17093000Y-7703000D02*
X17053000Y-7743000D01*
X17053000Y-7963000D02*
X17093000Y-8003000D01*
X17093000Y-7963000D02*
X17053000Y-8003000D01*
X17063000Y-8213000D02*
X17103000Y-8253000D01*
X17103000Y-8213000D02*
X17063000Y-8253000D01*
X17063000Y-8723000D02*
X17103000Y-8763000D01*
X17103000Y-8723000D02*
X17063000Y-8763000D01*
X17073000Y-7193000D02*
X17113000Y-7233000D01*
X17113000Y-7193000D02*
X17073000Y-7233000D01*
X17073000Y-7453000D02*
X17113000Y-7493000D01*
X17113000Y-7453000D02*
X17073000Y-7493000D01*
X17073000Y-8463000D02*
X17113000Y-8503000D01*
X17113000Y-8463000D02*
X17073000Y-8503000D01*
X17073000Y-8973000D02*
X17113000Y-9013000D01*
X17113000Y-8973000D02*
X17073000Y-9013000D01*
X17533000Y-7193000D02*
X17573000Y-7233000D01*
X17573000Y-7193000D02*
X17533000Y-7233000D01*
X17533000Y-7703000D02*
X17573000Y-7743000D01*
X17573000Y-7703000D02*
X17533000Y-7743000D01*
X17533000Y-7963000D02*
X17573000Y-8003000D01*
X17573000Y-7963000D02*
X17533000Y-8003000D01*
X17533000Y-8213000D02*
X17573000Y-8253000D01*
X17573000Y-8213000D02*
X17533000Y-8253000D01*
X17533000Y-8473000D02*
X17573000Y-8513000D01*
X17573000Y-8473000D02*
X17533000Y-8513000D01*
X17533000Y-8723000D02*
X17573000Y-8763000D01*
X17573000Y-8723000D02*
X17533000Y-8763000D01*
X17533000Y-8973000D02*
X17573000Y-9013000D01*
X17573000Y-8973000D02*
X17533000Y-9013000D01*
X17543000Y-7453000D02*
X17583000Y-7493000D01*
X17583000Y-7453000D02*
X17543000Y-7493000D01*
D11*
X16941119Y-10705476D02*
X16941119Y-10505476D01*
X16988738Y-10505476D01*
X17017310Y-10515000D01*
X17036357Y-10534048D01*
X17045881Y-10553095D01*
X17055405Y-10591190D01*
X17055405Y-10619762D01*
X17045881Y-10657857D01*
X17036357Y-10676905D01*
X17017310Y-10695952D01*
X16988738Y-10705476D01*
X16941119Y-10705476D01*
X17141119Y-10705476D02*
X17141119Y-10572143D01*
X17141119Y-10610238D02*
X17150643Y-10591190D01*
X17160167Y-10581667D01*
X17179214Y-10572143D01*
X17198262Y-10572143D01*
X17264929Y-10705476D02*
X17264929Y-10572143D01*
X17264929Y-10505476D02*
X17255405Y-10515000D01*
X17264929Y-10524524D01*
X17274452Y-10515000D01*
X17264929Y-10505476D01*
X17264929Y-10524524D01*
X17388738Y-10705476D02*
X17369690Y-10695952D01*
X17360167Y-10676905D01*
X17360167Y-10505476D01*
X17493500Y-10705476D02*
X17474452Y-10695952D01*
X17464929Y-10676905D01*
X17464929Y-10505476D01*
X17722071Y-10705476D02*
X17722071Y-10505476D01*
X17788738Y-10648333D01*
X17855405Y-10505476D01*
X17855405Y-10705476D01*
X18036357Y-10705476D02*
X18036357Y-10600714D01*
X18026833Y-10581667D01*
X18007786Y-10572143D01*
X17969690Y-10572143D01*
X17950643Y-10581667D01*
X18036357Y-10695952D02*
X18017310Y-10705476D01*
X17969690Y-10705476D01*
X17950643Y-10695952D01*
X17941119Y-10676905D01*
X17941119Y-10657857D01*
X17950643Y-10638810D01*
X17969690Y-10629286D01*
X18017310Y-10629286D01*
X18036357Y-10619762D01*
X18131595Y-10572143D02*
X18131595Y-10772143D01*
X18131595Y-10581667D02*
X18150643Y-10572143D01*
X18188738Y-10572143D01*
X18207786Y-10581667D01*
X18217310Y-10591190D01*
X18226833Y-10610238D01*
X18226833Y-10667381D01*
X18217310Y-10686429D01*
X18207786Y-10695952D01*
X18188738Y-10705476D01*
X18150643Y-10705476D01*
X18131595Y-10695952D01*
X18312548Y-10686429D02*
X18322071Y-10695952D01*
X18312548Y-10705476D01*
X18303024Y-10695952D01*
X18312548Y-10686429D01*
X18312548Y-10705476D01*
X18312548Y-10581667D02*
X18322071Y-10591190D01*
X18312548Y-10600714D01*
X18303024Y-10591190D01*
X18312548Y-10581667D01*
X18312548Y-10600714D01*
D12*
X16643500Y-11015000D02*
X16683500Y-11055000D01*
X16683500Y-11015000D02*
X16643500Y-11055000D01*
D11*
X16979214Y-10925476D02*
X16998262Y-10925476D01*
X17017310Y-10935000D01*
X17026833Y-10944524D01*
X17036357Y-10963571D01*
X17045881Y-11001667D01*
X17045881Y-11049286D01*
X17036357Y-11087381D01*
X17026833Y-11106429D01*
X17017310Y-11115952D01*
X16998262Y-11125476D01*
X16979214Y-11125476D01*
X16960167Y-11115952D01*
X16950643Y-11106429D01*
X16941119Y-11087381D01*
X16931595Y-11049286D01*
X16931595Y-11001667D01*
X16941119Y-10963571D01*
X16950643Y-10944524D01*
X16960167Y-10935000D01*
X16979214Y-10925476D01*
X17131595Y-11106429D02*
X17141119Y-11115952D01*
X17131595Y-11125476D01*
X17122071Y-11115952D01*
X17131595Y-11106429D01*
X17131595Y-11125476D01*
X17312548Y-10992143D02*
X17312548Y-11125476D01*
X17264929Y-10915952D02*
X17217310Y-11058810D01*
X17341119Y-11058810D01*
X17455405Y-10925476D02*
X17474452Y-10925476D01*
X17493500Y-10935000D01*
X17503024Y-10944524D01*
X17512548Y-10963571D01*
X17522071Y-11001667D01*
X17522071Y-11049286D01*
X17512548Y-11087381D01*
X17503024Y-11106429D01*
X17493500Y-11115952D01*
X17474452Y-11125476D01*
X17455405Y-11125476D01*
X17436357Y-11115952D01*
X17426833Y-11106429D01*
X17417310Y-11087381D01*
X17407786Y-11049286D01*
X17407786Y-11001667D01*
X17417310Y-10963571D01*
X17426833Y-10944524D01*
X17436357Y-10935000D01*
X17455405Y-10925476D01*
X17645881Y-10925476D02*
X17664929Y-10925476D01*
X17683976Y-10935000D01*
X17693500Y-10944524D01*
X17703024Y-10963571D01*
X17712548Y-11001667D01*
X17712548Y-11049286D01*
X17703024Y-11087381D01*
X17693500Y-11106429D01*
X17683976Y-11115952D01*
X17664929Y-11125476D01*
X17645881Y-11125476D01*
X17626833Y-11115952D01*
X17617310Y-11106429D01*
X17607786Y-11087381D01*
X17598262Y-11049286D01*
X17598262Y-11001667D01*
X17607786Y-10963571D01*
X17617310Y-10944524D01*
X17626833Y-10935000D01*
X17645881Y-10925476D01*
X17798262Y-11125476D02*
X17798262Y-10992143D01*
X17798262Y-11011190D02*
X17807786Y-11001667D01*
X17826833Y-10992143D01*
X17855405Y-10992143D01*
X17874452Y-11001667D01*
X17883976Y-11020714D01*
X17883976Y-11125476D01*
X17883976Y-11020714D02*
X17893500Y-11001667D01*
X17912548Y-10992143D01*
X17941119Y-10992143D01*
X17960167Y-11001667D01*
X17969690Y-11020714D01*
X17969690Y-11125476D01*
X18064929Y-11125476D02*
X18064929Y-10992143D01*
X18064929Y-11011190D02*
X18074452Y-11001667D01*
X18093500Y-10992143D01*
X18122071Y-10992143D01*
X18141119Y-11001667D01*
X18150643Y-11020714D01*
X18150643Y-11125476D01*
X18150643Y-11020714D02*
X18160167Y-11001667D01*
X18179214Y-10992143D01*
X18207786Y-10992143D01*
X18226833Y-11001667D01*
X18236357Y-11020714D01*
X18236357Y-11125476D01*
X18626833Y-10915952D02*
X18455405Y-11173095D01*
X18883976Y-10925476D02*
X18903024Y-10925476D01*
X18922071Y-10935000D01*
X18931595Y-10944524D01*
X18941119Y-10963571D01*
X18950643Y-11001667D01*
X18950643Y-11049286D01*
X18941119Y-11087381D01*
X18931595Y-11106429D01*
X18922071Y-11115952D01*
X18903024Y-11125476D01*
X18883976Y-11125476D01*
X18864929Y-11115952D01*
X18855405Y-11106429D01*
X18845881Y-11087381D01*
X18836357Y-11049286D01*
X18836357Y-11001667D01*
X18845881Y-10963571D01*
X18855405Y-10944524D01*
X18864929Y-10935000D01*
X18883976Y-10925476D01*
X19036357Y-11106429D02*
X19045881Y-11115952D01*
X19036357Y-11125476D01*
X19026833Y-11115952D01*
X19036357Y-11106429D01*
X19036357Y-11125476D01*
X19169690Y-10925476D02*
X19188738Y-10925476D01*
X19207786Y-10935000D01*
X19217310Y-10944524D01*
X19226833Y-10963571D01*
X19236357Y-11001667D01*
X19236357Y-11049286D01*
X19226833Y-11087381D01*
X19217310Y-11106429D01*
X19207786Y-11115952D01*
X19188738Y-11125476D01*
X19169690Y-11125476D01*
X19150643Y-11115952D01*
X19141119Y-11106429D01*
X19131595Y-11087381D01*
X19122071Y-11049286D01*
X19122071Y-11001667D01*
X19131595Y-10963571D01*
X19141119Y-10944524D01*
X19150643Y-10935000D01*
X19169690Y-10925476D01*
X19426833Y-11125476D02*
X19312548Y-11125476D01*
X19369690Y-11125476D02*
X19369690Y-10925476D01*
X19350643Y-10954048D01*
X19331595Y-10973095D01*
X19312548Y-10982619D01*
X19607786Y-10925476D02*
X19512548Y-10925476D01*
X19503024Y-11020714D01*
X19512548Y-11011190D01*
X19531595Y-11001667D01*
X19579214Y-11001667D01*
X19598262Y-11011190D01*
X19607786Y-11020714D01*
X19617310Y-11039762D01*
X19617310Y-11087381D01*
X19607786Y-11106429D01*
X19598262Y-11115952D01*
X19579214Y-11125476D01*
X19531595Y-11125476D01*
X19512548Y-11115952D01*
X19503024Y-11106429D01*
X19683976Y-10925476D02*
X19817310Y-10925476D01*
X19731595Y-11125476D01*
X19883976Y-10925476D02*
X19883976Y-10963571D01*
X19960167Y-10925476D02*
X19960167Y-10963571D01*
X20255405Y-11201667D02*
X20245881Y-11192143D01*
X20226833Y-11163571D01*
X20217310Y-11144524D01*
X20207786Y-11115952D01*
X20198262Y-11068333D01*
X20198262Y-11030238D01*
X20207786Y-10982619D01*
X20217310Y-10954048D01*
X20226833Y-10935000D01*
X20245881Y-10906429D01*
X20255405Y-10896905D01*
X20436357Y-11125476D02*
X20322071Y-11125476D01*
X20379214Y-11125476D02*
X20379214Y-10925476D01*
X20360167Y-10954048D01*
X20341119Y-10973095D01*
X20322071Y-10982619D01*
X20607786Y-10925476D02*
X20569690Y-10925476D01*
X20550643Y-10935000D01*
X20541119Y-10944524D01*
X20522071Y-10973095D01*
X20512548Y-11011190D01*
X20512548Y-11087381D01*
X20522071Y-11106429D01*
X20531595Y-11115952D01*
X20550643Y-11125476D01*
X20588738Y-11125476D01*
X20607786Y-11115952D01*
X20617310Y-11106429D01*
X20626833Y-11087381D01*
X20626833Y-11039762D01*
X20617310Y-11020714D01*
X20607786Y-11011190D01*
X20588738Y-11001667D01*
X20550643Y-11001667D01*
X20531595Y-11011190D01*
X20522071Y-11020714D01*
X20512548Y-11039762D01*
X20864929Y-11125476D02*
X20864929Y-10925476D01*
X20950643Y-11125476D02*
X20950643Y-11020714D01*
X20941119Y-11001667D01*
X20922071Y-10992143D01*
X20893500Y-10992143D01*
X20874452Y-11001667D01*
X20864929Y-11011190D01*
X21074452Y-11125476D02*
X21055405Y-11115952D01*
X21045881Y-11106429D01*
X21036357Y-11087381D01*
X21036357Y-11030238D01*
X21045881Y-11011190D01*
X21055405Y-11001667D01*
X21074452Y-10992143D01*
X21103024Y-10992143D01*
X21122071Y-11001667D01*
X21131595Y-11011190D01*
X21141119Y-11030238D01*
X21141119Y-11087381D01*
X21131595Y-11106429D01*
X21122071Y-11115952D01*
X21103024Y-11125476D01*
X21074452Y-11125476D01*
X21255405Y-11125476D02*
X21236357Y-11115952D01*
X21226833Y-11096905D01*
X21226833Y-10925476D01*
X21407786Y-11115952D02*
X21388738Y-11125476D01*
X21350643Y-11125476D01*
X21331595Y-11115952D01*
X21322071Y-11096905D01*
X21322071Y-11020714D01*
X21331595Y-11001667D01*
X21350643Y-10992143D01*
X21388738Y-10992143D01*
X21407786Y-11001667D01*
X21417310Y-11020714D01*
X21417310Y-11039762D01*
X21322071Y-11058810D01*
X21493500Y-11115952D02*
X21512548Y-11125476D01*
X21550643Y-11125476D01*
X21569690Y-11115952D01*
X21579214Y-11096905D01*
X21579214Y-11087381D01*
X21569690Y-11068333D01*
X21550643Y-11058810D01*
X21522071Y-11058810D01*
X21503024Y-11049286D01*
X21493500Y-11030238D01*
X21493500Y-11020714D01*
X21503024Y-11001667D01*
X21522071Y-10992143D01*
X21550643Y-10992143D01*
X21569690Y-11001667D01*
X21645881Y-11201667D02*
X21655405Y-11192143D01*
X21674452Y-11163571D01*
X21683976Y-11144524D01*
X21693500Y-11115952D01*
X21703024Y-11068333D01*
X21703024Y-11030238D01*
X21693500Y-10982619D01*
X21683976Y-10954048D01*
X21674452Y-10935000D01*
X21655405Y-10906429D01*
X21645881Y-10896905D01*
M02*
