%TF.GenerationSoftware,KiCad,Pcbnew,(6.0.11)*%
%TF.CreationDate,2024-01-05T01:14:36+00:00*%
%TF.ProjectId,EcoIDSwitch,45636f49-4453-4776-9974-63682e6b6963,rev?*%
%TF.SameCoordinates,Original*%
%TF.FileFunction,Drillmap*%
%TF.FilePolarity,Positive*%
%FSLAX45Y45*%
G04 Gerber Fmt 4.5, Leading zero omitted, Abs format (unit mm)*
G04 Created by KiCad (PCBNEW (6.0.11)) date 2024-01-05 01:14:36*
%MOMM*%
%LPD*%
G01*
G04 APERTURE LIST*
%ADD10C,0.100000*%
%ADD11C,0.200000*%
G04 APERTURE END LIST*
D10*
X16810000Y-6810000D02*
X15540000Y-6810000D01*
X15540000Y-6810000D02*
X15540000Y-10180000D01*
X16810000Y-10180000D02*
X16810000Y-6810000D01*
X15540000Y-10180000D02*
X16810000Y-10180000D01*
D11*
X15792619Y-10495476D02*
X15792619Y-10295476D01*
X15840238Y-10295476D01*
X15868809Y-10305000D01*
X15887857Y-10324048D01*
X15897381Y-10343095D01*
X15906905Y-10381190D01*
X15906905Y-10409762D01*
X15897381Y-10447857D01*
X15887857Y-10466905D01*
X15868809Y-10485952D01*
X15840238Y-10495476D01*
X15792619Y-10495476D01*
X15992619Y-10495476D02*
X15992619Y-10362143D01*
X15992619Y-10400238D02*
X16002143Y-10381190D01*
X16011667Y-10371667D01*
X16030714Y-10362143D01*
X16049762Y-10362143D01*
X16116428Y-10495476D02*
X16116428Y-10362143D01*
X16116428Y-10295476D02*
X16106905Y-10305000D01*
X16116428Y-10314524D01*
X16125952Y-10305000D01*
X16116428Y-10295476D01*
X16116428Y-10314524D01*
X16240238Y-10495476D02*
X16221190Y-10485952D01*
X16211667Y-10466905D01*
X16211667Y-10295476D01*
X16345000Y-10495476D02*
X16325952Y-10485952D01*
X16316428Y-10466905D01*
X16316428Y-10295476D01*
X16573571Y-10495476D02*
X16573571Y-10295476D01*
X16640238Y-10438333D01*
X16706905Y-10295476D01*
X16706905Y-10495476D01*
X16887857Y-10495476D02*
X16887857Y-10390714D01*
X16878333Y-10371667D01*
X16859286Y-10362143D01*
X16821190Y-10362143D01*
X16802143Y-10371667D01*
X16887857Y-10485952D02*
X16868810Y-10495476D01*
X16821190Y-10495476D01*
X16802143Y-10485952D01*
X16792619Y-10466905D01*
X16792619Y-10447857D01*
X16802143Y-10428810D01*
X16821190Y-10419286D01*
X16868810Y-10419286D01*
X16887857Y-10409762D01*
X16983095Y-10362143D02*
X16983095Y-10562143D01*
X16983095Y-10371667D02*
X17002143Y-10362143D01*
X17040238Y-10362143D01*
X17059286Y-10371667D01*
X17068810Y-10381190D01*
X17078333Y-10400238D01*
X17078333Y-10457381D01*
X17068810Y-10476429D01*
X17059286Y-10485952D01*
X17040238Y-10495476D01*
X17002143Y-10495476D01*
X16983095Y-10485952D01*
X17164048Y-10476429D02*
X17173571Y-10485952D01*
X17164048Y-10495476D01*
X17154524Y-10485952D01*
X17164048Y-10476429D01*
X17164048Y-10495476D01*
X17164048Y-10371667D02*
X17173571Y-10381190D01*
X17164048Y-10390714D01*
X17154524Y-10381190D01*
X17164048Y-10371667D01*
X17164048Y-10390714D01*
M02*
