%TF.GenerationSoftware,KiCad,Pcbnew,(6.0.11)*%
%TF.CreationDate,2024-01-12T21:03:48+00:00*%
%TF.ProjectId,EcoIDSolder,45636f49-4453-46f6-9c64-65722e6b6963,rev?*%
%TF.SameCoordinates,Original*%
%TF.FileFunction,Drillmap*%
%TF.FilePolarity,Positive*%
%FSLAX45Y45*%
G04 Gerber Fmt 4.5, Leading zero omitted, Abs format (unit mm)*
G04 Created by KiCad (PCBNEW (6.0.11)) date 2024-01-12 21:03:48*
%MOMM*%
%LPD*%
G01*
G04 APERTURE LIST*
%ADD10C,0.100000*%
%ADD11C,0.200000*%
G04 APERTURE END LIST*
D10*
X16688500Y-10390000D02*
X17958500Y-10390000D01*
X16688500Y-7020000D02*
X16688500Y-10390000D01*
X17958500Y-10390000D02*
X17958500Y-7020000D01*
X17958500Y-7020000D02*
X16688500Y-7020000D01*
D11*
X16941119Y-10705476D02*
X16941119Y-10505476D01*
X16988738Y-10505476D01*
X17017310Y-10515000D01*
X17036357Y-10534048D01*
X17045881Y-10553095D01*
X17055405Y-10591190D01*
X17055405Y-10619762D01*
X17045881Y-10657857D01*
X17036357Y-10676905D01*
X17017310Y-10695952D01*
X16988738Y-10705476D01*
X16941119Y-10705476D01*
X17141119Y-10705476D02*
X17141119Y-10572143D01*
X17141119Y-10610238D02*
X17150643Y-10591190D01*
X17160167Y-10581667D01*
X17179214Y-10572143D01*
X17198262Y-10572143D01*
X17264929Y-10705476D02*
X17264929Y-10572143D01*
X17264929Y-10505476D02*
X17255405Y-10515000D01*
X17264929Y-10524524D01*
X17274452Y-10515000D01*
X17264929Y-10505476D01*
X17264929Y-10524524D01*
X17388738Y-10705476D02*
X17369690Y-10695952D01*
X17360167Y-10676905D01*
X17360167Y-10505476D01*
X17493500Y-10705476D02*
X17474452Y-10695952D01*
X17464929Y-10676905D01*
X17464929Y-10505476D01*
X17722071Y-10705476D02*
X17722071Y-10505476D01*
X17788738Y-10648333D01*
X17855405Y-10505476D01*
X17855405Y-10705476D01*
X18036357Y-10705476D02*
X18036357Y-10600714D01*
X18026833Y-10581667D01*
X18007786Y-10572143D01*
X17969690Y-10572143D01*
X17950643Y-10581667D01*
X18036357Y-10695952D02*
X18017310Y-10705476D01*
X17969690Y-10705476D01*
X17950643Y-10695952D01*
X17941119Y-10676905D01*
X17941119Y-10657857D01*
X17950643Y-10638810D01*
X17969690Y-10629286D01*
X18017310Y-10629286D01*
X18036357Y-10619762D01*
X18131595Y-10572143D02*
X18131595Y-10772143D01*
X18131595Y-10581667D02*
X18150643Y-10572143D01*
X18188738Y-10572143D01*
X18207786Y-10581667D01*
X18217310Y-10591190D01*
X18226833Y-10610238D01*
X18226833Y-10667381D01*
X18217310Y-10686429D01*
X18207786Y-10695952D01*
X18188738Y-10705476D01*
X18150643Y-10705476D01*
X18131595Y-10695952D01*
X18312548Y-10686429D02*
X18322071Y-10695952D01*
X18312548Y-10705476D01*
X18303024Y-10695952D01*
X18312548Y-10686429D01*
X18312548Y-10705476D01*
X18312548Y-10581667D02*
X18322071Y-10591190D01*
X18312548Y-10600714D01*
X18303024Y-10591190D01*
X18312548Y-10581667D01*
X18312548Y-10600714D01*
M02*
