%TF.GenerationSoftware,KiCad,Pcbnew,(6.0.11)*%
%TF.CreationDate,2024-01-05T01:13:56+00:00*%
%TF.ProjectId,EcoIDSolder,45636f49-4453-46f6-9c64-65722e6b6963,rev?*%
%TF.SameCoordinates,Original*%
%TF.FileFunction,Drillmap*%
%TF.FilePolarity,Positive*%
%FSLAX45Y45*%
G04 Gerber Fmt 4.5, Leading zero omitted, Abs format (unit mm)*
G04 Created by KiCad (PCBNEW (6.0.11)) date 2024-01-05 01:13:56*
%MOMM*%
%LPD*%
G01*
G04 APERTURE LIST*
%ADD10C,0.100000*%
%ADD11C,0.200000*%
%ADD12C,0.040000*%
G04 APERTURE END LIST*
D10*
X14300000Y-9080000D02*
X14300000Y-7080000D01*
X15240000Y-9080000D02*
G75*
G03*
X15340000Y-9180000I100000J0D01*
G01*
X14400000Y-6980000D02*
G75*
G03*
X14300000Y-7080000I0J-100000D01*
G01*
X14030000Y-10580000D02*
X14030000Y-9280000D01*
X14030000Y-10580000D02*
G75*
G03*
X14130000Y-10680000I100000J0D01*
G01*
X15240000Y-7080000D02*
G75*
G03*
X15140000Y-6980000I-100000J0D01*
G01*
X15429289Y-9180711D02*
X15340000Y-9180000D01*
X15240000Y-7080000D02*
X15240000Y-9080000D01*
X14130000Y-9180000D02*
X14200000Y-9180000D01*
X15529289Y-9280711D02*
G75*
G03*
X15429289Y-9180711I-99999J1D01*
G01*
X15430000Y-10680000D02*
G75*
G03*
X15530000Y-10580000I0J100000D01*
G01*
X14400000Y-6980000D02*
X15140000Y-6980000D01*
X14130000Y-10680000D02*
X15430000Y-10680000D01*
X14200000Y-9180000D02*
G75*
G03*
X14300000Y-9080000I0J100000D01*
G01*
X14130000Y-9180000D02*
G75*
G03*
X14030000Y-9280000I0J-100000D01*
G01*
X15530000Y-10580000D02*
X15529289Y-9280711D01*
D11*
D12*
X14500000Y-7680000D02*
X14540000Y-7720000D01*
X14540000Y-7680000D02*
X14500000Y-7720000D01*
X14500000Y-7940000D02*
X14540000Y-7980000D01*
X14540000Y-7940000D02*
X14500000Y-7980000D01*
X14510000Y-8190000D02*
X14550000Y-8230000D01*
X14550000Y-8190000D02*
X14510000Y-8230000D01*
X14510000Y-8700000D02*
X14550000Y-8740000D01*
X14550000Y-8700000D02*
X14510000Y-8740000D01*
X14520000Y-7170000D02*
X14560000Y-7210000D01*
X14560000Y-7170000D02*
X14520000Y-7210000D01*
X14520000Y-7430000D02*
X14560000Y-7470000D01*
X14560000Y-7430000D02*
X14520000Y-7470000D01*
X14520000Y-8440000D02*
X14560000Y-8480000D01*
X14560000Y-8440000D02*
X14520000Y-8480000D01*
X14520000Y-8950000D02*
X14560000Y-8990000D01*
X14560000Y-8950000D02*
X14520000Y-8990000D01*
X14980000Y-7170000D02*
X15020000Y-7210000D01*
X15020000Y-7170000D02*
X14980000Y-7210000D01*
X14980000Y-7680000D02*
X15020000Y-7720000D01*
X15020000Y-7680000D02*
X14980000Y-7720000D01*
X14980000Y-7940000D02*
X15020000Y-7980000D01*
X15020000Y-7940000D02*
X14980000Y-7980000D01*
X14980000Y-8190000D02*
X15020000Y-8230000D01*
X15020000Y-8190000D02*
X14980000Y-8230000D01*
X14980000Y-8450000D02*
X15020000Y-8490000D01*
X15020000Y-8450000D02*
X14980000Y-8490000D01*
X14980000Y-8700000D02*
X15020000Y-8740000D01*
X15020000Y-8700000D02*
X14980000Y-8740000D01*
X14980000Y-8950000D02*
X15020000Y-8990000D01*
X15020000Y-8950000D02*
X14980000Y-8990000D01*
X14990000Y-7430000D02*
X15030000Y-7470000D01*
X15030000Y-7430000D02*
X14990000Y-7470000D01*
D11*
X14282619Y-10995476D02*
X14282619Y-10795476D01*
X14330238Y-10795476D01*
X14358809Y-10805000D01*
X14377857Y-10824048D01*
X14387381Y-10843095D01*
X14396905Y-10881190D01*
X14396905Y-10909762D01*
X14387381Y-10947857D01*
X14377857Y-10966905D01*
X14358809Y-10985952D01*
X14330238Y-10995476D01*
X14282619Y-10995476D01*
X14482619Y-10995476D02*
X14482619Y-10862143D01*
X14482619Y-10900238D02*
X14492143Y-10881190D01*
X14501667Y-10871667D01*
X14520714Y-10862143D01*
X14539762Y-10862143D01*
X14606428Y-10995476D02*
X14606428Y-10862143D01*
X14606428Y-10795476D02*
X14596905Y-10805000D01*
X14606428Y-10814524D01*
X14615952Y-10805000D01*
X14606428Y-10795476D01*
X14606428Y-10814524D01*
X14730238Y-10995476D02*
X14711190Y-10985952D01*
X14701667Y-10966905D01*
X14701667Y-10795476D01*
X14835000Y-10995476D02*
X14815952Y-10985952D01*
X14806428Y-10966905D01*
X14806428Y-10795476D01*
X15063571Y-10995476D02*
X15063571Y-10795476D01*
X15130238Y-10938333D01*
X15196905Y-10795476D01*
X15196905Y-10995476D01*
X15377857Y-10995476D02*
X15377857Y-10890714D01*
X15368333Y-10871667D01*
X15349286Y-10862143D01*
X15311190Y-10862143D01*
X15292143Y-10871667D01*
X15377857Y-10985952D02*
X15358809Y-10995476D01*
X15311190Y-10995476D01*
X15292143Y-10985952D01*
X15282619Y-10966905D01*
X15282619Y-10947857D01*
X15292143Y-10928810D01*
X15311190Y-10919286D01*
X15358809Y-10919286D01*
X15377857Y-10909762D01*
X15473095Y-10862143D02*
X15473095Y-11062143D01*
X15473095Y-10871667D02*
X15492143Y-10862143D01*
X15530238Y-10862143D01*
X15549286Y-10871667D01*
X15558809Y-10881190D01*
X15568333Y-10900238D01*
X15568333Y-10957381D01*
X15558809Y-10976429D01*
X15549286Y-10985952D01*
X15530238Y-10995476D01*
X15492143Y-10995476D01*
X15473095Y-10985952D01*
X15654048Y-10976429D02*
X15663571Y-10985952D01*
X15654048Y-10995476D01*
X15644524Y-10985952D01*
X15654048Y-10976429D01*
X15654048Y-10995476D01*
X15654048Y-10871667D02*
X15663571Y-10881190D01*
X15654048Y-10890714D01*
X15644524Y-10881190D01*
X15654048Y-10871667D01*
X15654048Y-10890714D01*
D12*
X13985000Y-11305000D02*
X14025000Y-11345000D01*
X14025000Y-11305000D02*
X13985000Y-11345000D01*
D11*
X14320714Y-11215476D02*
X14339762Y-11215476D01*
X14358809Y-11225000D01*
X14368333Y-11234524D01*
X14377857Y-11253571D01*
X14387381Y-11291667D01*
X14387381Y-11339286D01*
X14377857Y-11377381D01*
X14368333Y-11396428D01*
X14358809Y-11405952D01*
X14339762Y-11415476D01*
X14320714Y-11415476D01*
X14301667Y-11405952D01*
X14292143Y-11396428D01*
X14282619Y-11377381D01*
X14273095Y-11339286D01*
X14273095Y-11291667D01*
X14282619Y-11253571D01*
X14292143Y-11234524D01*
X14301667Y-11225000D01*
X14320714Y-11215476D01*
X14473095Y-11396428D02*
X14482619Y-11405952D01*
X14473095Y-11415476D01*
X14463571Y-11405952D01*
X14473095Y-11396428D01*
X14473095Y-11415476D01*
X14654048Y-11282143D02*
X14654048Y-11415476D01*
X14606428Y-11205952D02*
X14558809Y-11348809D01*
X14682619Y-11348809D01*
X14796905Y-11215476D02*
X14815952Y-11215476D01*
X14835000Y-11225000D01*
X14844524Y-11234524D01*
X14854048Y-11253571D01*
X14863571Y-11291667D01*
X14863571Y-11339286D01*
X14854048Y-11377381D01*
X14844524Y-11396428D01*
X14835000Y-11405952D01*
X14815952Y-11415476D01*
X14796905Y-11415476D01*
X14777857Y-11405952D01*
X14768333Y-11396428D01*
X14758809Y-11377381D01*
X14749286Y-11339286D01*
X14749286Y-11291667D01*
X14758809Y-11253571D01*
X14768333Y-11234524D01*
X14777857Y-11225000D01*
X14796905Y-11215476D01*
X14987381Y-11215476D02*
X15006428Y-11215476D01*
X15025476Y-11225000D01*
X15035000Y-11234524D01*
X15044524Y-11253571D01*
X15054048Y-11291667D01*
X15054048Y-11339286D01*
X15044524Y-11377381D01*
X15035000Y-11396428D01*
X15025476Y-11405952D01*
X15006428Y-11415476D01*
X14987381Y-11415476D01*
X14968333Y-11405952D01*
X14958809Y-11396428D01*
X14949286Y-11377381D01*
X14939762Y-11339286D01*
X14939762Y-11291667D01*
X14949286Y-11253571D01*
X14958809Y-11234524D01*
X14968333Y-11225000D01*
X14987381Y-11215476D01*
X15139762Y-11415476D02*
X15139762Y-11282143D01*
X15139762Y-11301190D02*
X15149286Y-11291667D01*
X15168333Y-11282143D01*
X15196905Y-11282143D01*
X15215952Y-11291667D01*
X15225476Y-11310714D01*
X15225476Y-11415476D01*
X15225476Y-11310714D02*
X15235000Y-11291667D01*
X15254048Y-11282143D01*
X15282619Y-11282143D01*
X15301667Y-11291667D01*
X15311190Y-11310714D01*
X15311190Y-11415476D01*
X15406428Y-11415476D02*
X15406428Y-11282143D01*
X15406428Y-11301190D02*
X15415952Y-11291667D01*
X15435000Y-11282143D01*
X15463571Y-11282143D01*
X15482619Y-11291667D01*
X15492143Y-11310714D01*
X15492143Y-11415476D01*
X15492143Y-11310714D02*
X15501667Y-11291667D01*
X15520714Y-11282143D01*
X15549286Y-11282143D01*
X15568333Y-11291667D01*
X15577857Y-11310714D01*
X15577857Y-11415476D01*
X15968333Y-11205952D02*
X15796905Y-11463095D01*
X16225476Y-11215476D02*
X16244524Y-11215476D01*
X16263571Y-11225000D01*
X16273095Y-11234524D01*
X16282619Y-11253571D01*
X16292143Y-11291667D01*
X16292143Y-11339286D01*
X16282619Y-11377381D01*
X16273095Y-11396428D01*
X16263571Y-11405952D01*
X16244524Y-11415476D01*
X16225476Y-11415476D01*
X16206428Y-11405952D01*
X16196905Y-11396428D01*
X16187381Y-11377381D01*
X16177857Y-11339286D01*
X16177857Y-11291667D01*
X16187381Y-11253571D01*
X16196905Y-11234524D01*
X16206428Y-11225000D01*
X16225476Y-11215476D01*
X16377857Y-11396428D02*
X16387381Y-11405952D01*
X16377857Y-11415476D01*
X16368333Y-11405952D01*
X16377857Y-11396428D01*
X16377857Y-11415476D01*
X16511190Y-11215476D02*
X16530238Y-11215476D01*
X16549286Y-11225000D01*
X16558809Y-11234524D01*
X16568333Y-11253571D01*
X16577857Y-11291667D01*
X16577857Y-11339286D01*
X16568333Y-11377381D01*
X16558809Y-11396428D01*
X16549286Y-11405952D01*
X16530238Y-11415476D01*
X16511190Y-11415476D01*
X16492143Y-11405952D01*
X16482619Y-11396428D01*
X16473095Y-11377381D01*
X16463571Y-11339286D01*
X16463571Y-11291667D01*
X16473095Y-11253571D01*
X16482619Y-11234524D01*
X16492143Y-11225000D01*
X16511190Y-11215476D01*
X16768333Y-11415476D02*
X16654048Y-11415476D01*
X16711190Y-11415476D02*
X16711190Y-11215476D01*
X16692143Y-11244048D01*
X16673095Y-11263095D01*
X16654048Y-11272619D01*
X16949286Y-11215476D02*
X16854048Y-11215476D01*
X16844524Y-11310714D01*
X16854048Y-11301190D01*
X16873095Y-11291667D01*
X16920714Y-11291667D01*
X16939762Y-11301190D01*
X16949286Y-11310714D01*
X16958810Y-11329762D01*
X16958810Y-11377381D01*
X16949286Y-11396428D01*
X16939762Y-11405952D01*
X16920714Y-11415476D01*
X16873095Y-11415476D01*
X16854048Y-11405952D01*
X16844524Y-11396428D01*
X17025476Y-11215476D02*
X17158810Y-11215476D01*
X17073095Y-11415476D01*
X17225476Y-11215476D02*
X17225476Y-11253571D01*
X17301667Y-11215476D02*
X17301667Y-11253571D01*
X17596905Y-11491667D02*
X17587381Y-11482143D01*
X17568333Y-11453571D01*
X17558810Y-11434524D01*
X17549286Y-11405952D01*
X17539762Y-11358333D01*
X17539762Y-11320238D01*
X17549286Y-11272619D01*
X17558810Y-11244048D01*
X17568333Y-11225000D01*
X17587381Y-11196428D01*
X17596905Y-11186905D01*
X17777857Y-11415476D02*
X17663571Y-11415476D01*
X17720714Y-11415476D02*
X17720714Y-11215476D01*
X17701667Y-11244048D01*
X17682619Y-11263095D01*
X17663571Y-11272619D01*
X17949286Y-11215476D02*
X17911190Y-11215476D01*
X17892143Y-11225000D01*
X17882619Y-11234524D01*
X17863571Y-11263095D01*
X17854048Y-11301190D01*
X17854048Y-11377381D01*
X17863571Y-11396428D01*
X17873095Y-11405952D01*
X17892143Y-11415476D01*
X17930238Y-11415476D01*
X17949286Y-11405952D01*
X17958810Y-11396428D01*
X17968333Y-11377381D01*
X17968333Y-11329762D01*
X17958810Y-11310714D01*
X17949286Y-11301190D01*
X17930238Y-11291667D01*
X17892143Y-11291667D01*
X17873095Y-11301190D01*
X17863571Y-11310714D01*
X17854048Y-11329762D01*
X18206429Y-11415476D02*
X18206429Y-11215476D01*
X18292143Y-11415476D02*
X18292143Y-11310714D01*
X18282619Y-11291667D01*
X18263571Y-11282143D01*
X18235000Y-11282143D01*
X18215952Y-11291667D01*
X18206429Y-11301190D01*
X18415952Y-11415476D02*
X18396905Y-11405952D01*
X18387381Y-11396428D01*
X18377857Y-11377381D01*
X18377857Y-11320238D01*
X18387381Y-11301190D01*
X18396905Y-11291667D01*
X18415952Y-11282143D01*
X18444524Y-11282143D01*
X18463571Y-11291667D01*
X18473095Y-11301190D01*
X18482619Y-11320238D01*
X18482619Y-11377381D01*
X18473095Y-11396428D01*
X18463571Y-11405952D01*
X18444524Y-11415476D01*
X18415952Y-11415476D01*
X18596905Y-11415476D02*
X18577857Y-11405952D01*
X18568333Y-11386905D01*
X18568333Y-11215476D01*
X18749286Y-11405952D02*
X18730238Y-11415476D01*
X18692143Y-11415476D01*
X18673095Y-11405952D01*
X18663571Y-11386905D01*
X18663571Y-11310714D01*
X18673095Y-11291667D01*
X18692143Y-11282143D01*
X18730238Y-11282143D01*
X18749286Y-11291667D01*
X18758810Y-11310714D01*
X18758810Y-11329762D01*
X18663571Y-11348809D01*
X18835000Y-11405952D02*
X18854048Y-11415476D01*
X18892143Y-11415476D01*
X18911190Y-11405952D01*
X18920714Y-11386905D01*
X18920714Y-11377381D01*
X18911190Y-11358333D01*
X18892143Y-11348809D01*
X18863571Y-11348809D01*
X18844524Y-11339286D01*
X18835000Y-11320238D01*
X18835000Y-11310714D01*
X18844524Y-11291667D01*
X18863571Y-11282143D01*
X18892143Y-11282143D01*
X18911190Y-11291667D01*
X18987381Y-11491667D02*
X18996905Y-11482143D01*
X19015952Y-11453571D01*
X19025476Y-11434524D01*
X19035000Y-11405952D01*
X19044524Y-11358333D01*
X19044524Y-11320238D01*
X19035000Y-11272619D01*
X19025476Y-11244048D01*
X19015952Y-11225000D01*
X18996905Y-11196428D01*
X18987381Y-11186905D01*
M02*
