%TF.GenerationSoftware,KiCad,Pcbnew,(6.0.11)*%
%TF.CreationDate,2024-01-12T21:03:44+00:00*%
%TF.ProjectId,EcoIDSolder,45636f49-4453-46f6-9c64-65722e6b6963,rev?*%
%TF.SameCoordinates,Original*%
%TF.FileFunction,Copper,L2,Bot*%
%TF.FilePolarity,Positive*%
%FSLAX46Y46*%
G04 Gerber Fmt 4.6, Leading zero omitted, Abs format (unit mm)*
G04 Created by KiCad (PCBNEW (6.0.11)) date 2024-01-12 21:03:44*
%MOMM*%
%LPD*%
G01*
G04 APERTURE LIST*
%TA.AperFunction,SMDPad,CuDef*%
%ADD10R,3.300000X1.020000*%
%TD*%
%TA.AperFunction,ViaPad*%
%ADD11C,0.800000*%
%TD*%
%TA.AperFunction,Conductor*%
%ADD12C,0.250000*%
%TD*%
G04 APERTURE END LIST*
D10*
%TO.P,J1,1,Pin_1*%
%TO.N,/0_in*%
X175565000Y-72165000D03*
%TO.P,J1,2,Pin_2*%
%TO.N,/1_in*%
X175565000Y-74705000D03*
%TO.P,J1,3,Pin_3*%
%TO.N,/2_in*%
X175565000Y-77245000D03*
%TO.P,J1,4,Pin_4*%
%TO.N,/3_in*%
X175565000Y-79785000D03*
%TO.P,J1,5,Pin_5*%
%TO.N,/4_in*%
X175565000Y-82325000D03*
%TO.P,J1,6,Pin_6*%
%TO.N,/5_in*%
X175565000Y-84865000D03*
%TO.P,J1,7,Pin_7*%
%TO.N,/6_in*%
X175565000Y-87405000D03*
%TO.P,J1,8,Pin_8*%
%TO.N,/7_in*%
X175565000Y-89945000D03*
%TO.P,J1,9,Pin_9*%
%TO.N,/7_out*%
X170865000Y-89945000D03*
%TO.P,J1,10,Pin_10*%
%TO.N,/6_out*%
X170865000Y-87405000D03*
%TO.P,J1,11,Pin_11*%
%TO.N,/5_out*%
X170865000Y-84865000D03*
%TO.P,J1,12,Pin_12*%
%TO.N,/4_out*%
X170865000Y-82325000D03*
%TO.P,J1,13,Pin_13*%
%TO.N,/3_out*%
X170865000Y-79785000D03*
%TO.P,J1,14,Pin_14*%
%TO.N,/2_out*%
X170865000Y-77245000D03*
%TO.P,J1,15,Pin_15*%
%TO.N,/1_out*%
X170865000Y-74705000D03*
%TO.P,J1,16,Pin_16*%
%TO.N,/0_out*%
X170865000Y-72165000D03*
%TD*%
D11*
%TO.N,/0_out*%
X170930000Y-72130000D03*
%TO.N,/0_in*%
X175530000Y-72130000D03*
%TO.N,/1_out*%
X170930000Y-74730000D03*
%TO.N,/1_in*%
X175630000Y-74730000D03*
%TO.N,/2_out*%
X170730000Y-77230000D03*
%TO.N,/2_in*%
X175530000Y-77230000D03*
%TO.N,/3_out*%
X170730000Y-79830000D03*
%TO.N,/3_in*%
X175530000Y-79830000D03*
%TO.N,/4_out*%
X170830000Y-82330000D03*
%TO.N,/4_in*%
X175530000Y-82330000D03*
%TO.N,/5_out*%
X170930000Y-84830000D03*
%TO.N,/5_in*%
X175530000Y-84930000D03*
%TO.N,/6_out*%
X170830000Y-87430000D03*
%TO.N,/6_in*%
X175530000Y-87430000D03*
%TO.N,/7_out*%
X170930000Y-89930000D03*
%TO.N,/7_in*%
X175530000Y-89930000D03*
%TD*%
D12*
%TO.N,/0_out*%
X170865000Y-72165000D02*
X170895000Y-72165000D01*
X170895000Y-72165000D02*
X170930000Y-72130000D01*
%TO.N,/0_in*%
X175565000Y-72165000D02*
X175530000Y-72130000D01*
%TO.N,/1_out*%
X170865000Y-74705000D02*
X170905000Y-74705000D01*
X170905000Y-74705000D02*
X170930000Y-74730000D01*
%TO.N,/1_in*%
X175565000Y-74705000D02*
X175605000Y-74705000D01*
X175605000Y-74705000D02*
X175630000Y-74730000D01*
%TO.N,/2_out*%
X170865000Y-77245000D02*
X170745000Y-77245000D01*
X170745000Y-77245000D02*
X170730000Y-77230000D01*
%TO.N,/2_in*%
X175565000Y-77245000D02*
X175545000Y-77245000D01*
X175545000Y-77245000D02*
X175530000Y-77230000D01*
%TO.N,/3_out*%
X170775000Y-79785000D02*
X170730000Y-79830000D01*
X170865000Y-79785000D02*
X170775000Y-79785000D01*
%TO.N,/3_in*%
X175565000Y-79795000D02*
X175530000Y-79830000D01*
X175565000Y-79785000D02*
X175565000Y-79795000D01*
%TO.N,/4_out*%
X170865000Y-82325000D02*
X170835000Y-82325000D01*
X170835000Y-82325000D02*
X170830000Y-82330000D01*
%TO.N,/4_in*%
X175565000Y-82325000D02*
X175535000Y-82325000D01*
X175535000Y-82325000D02*
X175530000Y-82330000D01*
%TO.N,/5_out*%
X170895000Y-84865000D02*
X170930000Y-84830000D01*
X170865000Y-84865000D02*
X170895000Y-84865000D01*
%TO.N,/5_in*%
X175565000Y-84895000D02*
X175530000Y-84930000D01*
X175565000Y-84865000D02*
X175565000Y-84895000D01*
%TO.N,/6_out*%
X170855000Y-87405000D02*
X170830000Y-87430000D01*
X170865000Y-87405000D02*
X170855000Y-87405000D01*
%TO.N,/6_in*%
X175555000Y-87405000D02*
X175530000Y-87430000D01*
X175565000Y-87405000D02*
X175555000Y-87405000D01*
%TO.N,/7_out*%
X170865000Y-89945000D02*
X170915000Y-89945000D01*
X170915000Y-89945000D02*
X170930000Y-89930000D01*
%TO.N,/7_in*%
X175565000Y-89945000D02*
X175545000Y-89945000D01*
X175545000Y-89945000D02*
X175530000Y-89930000D01*
%TD*%
M02*
